<svg width="24" height="24" viewBox="0 0 24 24" fill="none" xmlns="http://www.w3.org/2000/svg">
<path d="M17.0837 5.19C17.4618 4.75428 17.75 4.24817 17.9319 3.70074C18.1138 3.1533 18.1858 2.57533 18.1437 2C16.9831 2.09369 15.9057 2.63956 15.1437 3.52C14.7788 3.94198 14.5023 4.43288 14.3305 4.96364C14.1588 5.49441 14.0952 6.05424 14.1437 6.61C14.7099 6.61472 15.2695 6.4891 15.7793 6.24286C16.2891 5.99662 16.7354 5.63637 17.0837 5.19ZM19.6037 12.63C19.6104 11.8637 19.8123 11.1118 20.1902 10.4452C20.5681 9.77859 21.1096 9.21926 21.7637 8.82C21.3509 8.22524 20.8053 7.73483 20.17 7.38767C19.5347 7.04052 18.8272 6.84615 18.1037 6.82C16.5437 6.66 15.1037 7.73 14.2737 7.73C13.4437 7.73 12.2737 6.84 10.9737 6.86C10.1238 6.888 9.29573 7.13578 8.57016 7.57919C7.84458 8.02259 7.24632 8.64648 6.83371 9.39C5.07371 12.45 6.38371 17 8.14371 19.47C8.94371 20.68 9.94371 22.05 11.2637 22C12.5837 21.95 13.0137 21.18 14.5437 21.18C16.0737 21.18 16.5437 22 17.8437 21.97C19.1437 21.94 20.0637 20.73 20.9037 19.52C21.4988 18.6415 21.9636 17.6816 22.2837 16.67C21.4912 16.332 20.815 15.7693 20.3387 15.0513C19.8625 14.3333 19.6069 13.4916 19.6037 12.63Z" fill="#FFFBFB"/>
</svg>
