<svg width="24" height="23" viewBox="0 0 24 23" fill="none" xmlns="http://www.w3.org/2000/svg">
<path d="M23.8499 10.7706C23.7547 10.5356 23.6119 10.3208 23.4297 10.1387L13.4256 0.563212C13.239 0.384652 13.0176 0.24301 12.7738 0.146374C12.5301 0.0497385 12.2688 0 12.005 0C11.4722 0 10.9612 0.202593 10.5844 0.563212C10.3978 0.741772 10.2499 0.953753 10.1489 1.18705C10.0479 1.42035 9.99597 1.6704 9.99597 1.92292C9.99597 2.43292 10.2076 2.92202 10.5844 3.28264L17.1871 9.58328H2.00083C1.47018 9.58328 0.961259 9.78505 0.58603 10.1442C0.210802 10.5033 0 10.9905 0 11.4984C0 12.0063 0.210802 12.4934 0.58603 12.8525C0.961259 13.2117 1.47018 13.4135 2.00083 13.4135H17.1871L10.5844 19.7141C10.3969 19.8921 10.248 20.1039 10.1464 20.3373C10.0449 20.5707 9.99255 20.821 9.99255 21.0738C9.99255 21.3266 10.0449 21.5769 10.1464 21.8103C10.248 22.0437 10.3969 22.2555 10.5844 22.4335C10.7704 22.613 10.9917 22.7555 11.2355 22.8527C11.4793 22.9499 11.7409 23 12.005 23C12.2691 23 12.5306 22.9499 12.7745 22.8527C13.0183 22.7555 13.2396 22.613 13.4256 22.4335L23.4297 12.8581C23.6119 12.6759 23.7547 12.4612 23.8499 12.2261C24.05 11.7599 24.05 11.2369 23.8499 10.7706Z" fill="#FFF9F9"/>
</svg>
