<svg width="45" height="43" viewBox="0 0 45 43" fill="none" xmlns="http://www.w3.org/2000/svg">
<g filter="url(#filter0_d_14_52)">
<path d="M35.5528 34.158H9.4472C8.07396 34.1564 6.75742 33.5821 5.78639 32.5613C4.81536 31.5405 4.26913 30.1564 4.26752 28.7127V12.2871C4.26913 10.8434 4.81536 9.45939 5.78639 8.43856C6.75742 7.41774 8.07396 6.84349 9.4472 6.8418H35.5528C36.9261 6.84349 38.2426 7.41774 39.2136 8.43856C40.1847 9.45939 40.7309 10.8434 40.7325 12.2871V28.7127C40.7309 30.1564 40.1847 31.5405 39.2136 32.5613C38.2426 33.5821 36.9261 34.1564 35.5528 34.158ZM9.4472 8.76367C8.55831 8.76367 7.70583 9.13489 7.07729 9.79566C6.44875 10.4564 6.09564 11.3526 6.09564 12.2871V28.7127C6.09564 29.6472 6.44875 30.5434 7.07729 31.2042C7.70583 31.865 8.55831 32.2362 9.4472 32.2362H35.5528C36.4417 32.2362 37.2942 31.865 37.9227 31.2042C38.5513 30.5434 38.9044 29.6472 38.9044 28.7127V12.2871C38.9044 11.3526 38.5513 10.4564 37.9227 9.79566C37.2942 9.13489 36.4417 8.76367 35.5528 8.76367H9.4472Z" fill="#F9EFEF"/>
<path d="M22.5 24.3949C21.3724 24.3968 20.2749 24.0122 19.3739 23.2995L5.14501 11.986C5.04447 11.9118 4.95919 11.8171 4.89425 11.7075C4.82931 11.5979 4.78605 11.4757 4.76705 11.3481C4.74805 11.2206 4.75369 11.0903 4.78365 10.9651C4.81361 10.8398 4.86727 10.7223 4.94142 10.6193C5.01558 10.5164 5.1087 10.4302 5.21523 10.366C5.32177 10.3017 5.43953 10.2607 5.56148 10.2453C5.68343 10.23 5.80708 10.2406 5.92502 10.2767C6.04297 10.3127 6.15281 10.3733 6.24797 10.4549L20.4769 21.7812C21.0612 22.2397 21.7708 22.4875 22.5 22.4875C23.2292 22.4875 23.9388 22.2397 24.5231 21.7812L38.752 10.4549C38.8472 10.3733 38.957 10.3127 39.075 10.2767C39.1929 10.2406 39.3166 10.23 39.4385 10.2453C39.5605 10.2607 39.6782 10.3017 39.7848 10.366C39.8913 10.4302 39.9844 10.5164 40.0586 10.6193C40.1327 10.7223 40.1864 10.8398 40.2164 10.9651C40.2463 11.0903 40.252 11.2206 40.233 11.3481C40.214 11.4757 40.1707 11.5979 40.1058 11.7075C40.0408 11.8171 39.9555 11.9118 39.855 11.986L25.6261 23.2995C24.7251 24.0122 23.6276 24.3968 22.5 24.3949Z" fill="#F9EFEF"/>
<path d="M5.54108 31.4804C5.35569 31.4807 5.1746 31.4217 5.02184 31.3113C4.86908 31.2008 4.75187 31.0442 4.68576 30.8621C4.61965 30.68 4.60777 30.4811 4.6517 30.2918C4.69563 30.1024 4.79328 29.9316 4.9317 29.802L16.1442 19.2893C16.3252 19.1194 16.563 19.032 16.8053 19.0465C17.0476 19.0609 17.2745 19.1759 17.4361 19.3662C17.5977 19.5565 17.6808 19.8065 17.6671 20.0612C17.6534 20.3159 17.544 20.5544 17.363 20.7243L6.15045 31.237C5.98394 31.3962 5.76618 31.4832 5.54108 31.4804ZM39.4589 31.4804C39.2338 31.4832 39.016 31.3962 38.8495 31.237L27.637 20.7243C27.456 20.5544 27.3466 20.3159 27.3329 20.0612C27.3192 19.8065 27.4023 19.5565 27.5639 19.3662C27.7255 19.1759 27.9524 19.0609 28.1947 19.0465C28.437 19.032 28.6748 19.1194 28.8558 19.2893L40.0622 29.802C40.2006 29.9316 40.2982 30.1024 40.3422 30.2918C40.3861 30.4811 40.3742 30.68 40.3081 30.8621C40.242 31.0442 40.1248 31.2008 39.972 31.3113C39.8193 31.4217 39.6382 31.4807 39.4528 31.4804H39.4589Z" fill="#F9EFEF"/>
</g>
<defs>
<filter id="filter0_d_14_52" x="-1" y="0" width="47" height="49" filterUnits="userSpaceOnUse" color-interpolation-filters="sRGB">
<feFlood flood-opacity="0" result="BackgroundImageFix"/>
<feColorMatrix in="SourceAlpha" type="matrix" values="0 0 0 0 0 0 0 0 0 0 0 0 0 0 0 0 0 0 127 0" result="hardAlpha"/>
<feOffset dy="4"/>
<feGaussianBlur stdDeviation="2"/>
<feComposite in2="hardAlpha" operator="out"/>
<feColorMatrix type="matrix" values="0 0 0 0 0 0 0 0 0 0 0 0 0 0 0 0 0 0 0.25 0"/>
<feBlend mode="normal" in2="BackgroundImageFix" result="effect1_dropShadow_14_52"/>
<feBlend mode="normal" in="SourceGraphic" in2="effect1_dropShadow_14_52" result="shape"/>
</filter>
</defs>
</svg>
