<svg width="22" height="21" viewBox="0 0 22 21" fill="none" xmlns="http://www.w3.org/2000/svg">
<g clip-path="url(#clip0_14_174)">
<path d="M21.9884 10.6964C21.9884 9.83605 21.9135 9.20821 21.7516 8.55713H11.2191V12.4404H17.4014C17.2768 13.4054 16.6037 14.8587 15.108 15.8353L15.087 15.9653L18.4172 18.3717L18.6479 18.3932C20.7668 16.5678 21.9884 13.8821 21.9884 10.6964Z" fill="#4285F4"/>
<path d="M11.2191 20.9278C14.2479 20.9278 16.7906 19.9977 18.6479 18.3932L15.108 15.8353C14.1607 16.4516 12.8893 16.8817 11.2191 16.8817C8.25261 16.8817 5.73481 15.0564 4.83729 12.5334L4.70573 12.5439L1.24298 15.0436L1.19769 15.161C3.04241 18.5792 6.8316 20.9278 11.2191 20.9278Z" fill="#34A853"/>
<path d="M4.83731 12.5334C4.60049 11.8824 4.46343 11.1847 4.46343 10.4639C4.46343 9.74301 4.60049 9.04544 4.82485 8.39436L4.81858 8.2557L1.31243 5.71582L1.19772 5.76672C0.437419 7.18518 0.00115967 8.77805 0.00115967 10.4639C0.00115967 12.1498 0.437419 13.7425 1.19772 15.161L4.83731 12.5334Z" fill="#FBBC05"/>
<path d="M11.2191 4.04603C13.3256 4.04603 14.7465 4.89476 15.5567 5.60403L18.7227 2.72062C16.7783 1.03477 14.2479 0 11.2191 0C6.8316 0 3.04241 2.34855 1.19769 5.76674L4.82483 8.39439C5.73481 5.87142 8.25261 4.04603 11.2191 4.04603Z" fill="#EB4335"/>
</g>
<defs>
<clipPath id="clip0_14_174">
<rect width="22" height="21" fill="white"/>
</clipPath>
</defs>
</svg>
