<svg width="430" height="477" viewBox="0 0 430 477" fill="none" xmlns="http://www.w3.org/2000/svg">
<g filter="url(#filter0_dd_1_142)">
<rect width="424" height="451" transform="translate(3)" fill="white"/>
<path d="M409.333 444.736H23.8074C21.2163 444.736 19.0963 442.481 19.0963 439.725V420.098C19.0963 417.342 21.2163 415.087 23.8074 415.087H409.333C411.924 415.087 414.044 417.342 414.044 420.098V439.725C414.044 442.481 411.924 444.736 409.333 444.736Z" fill="#F7F7F7"/>
<path d="M219.711 422.186C292.13 422.186 350.837 359.741 350.837 282.71C350.837 205.68 292.13 143.234 219.711 143.234C147.292 143.234 88.5852 205.68 88.5852 282.71C88.5852 359.741 147.292 422.186 219.711 422.186Z" fill="#F3FAFF"/>
<path d="M382.244 381.22C385.032 373.662 387.859 365.268 385.228 357.668C384.6 355.831 383.619 353.868 384.207 351.989C384.993 349.441 388.133 348.565 389.154 346.143C390.332 343.47 388.487 340.38 388.958 337.498C389.429 334.575 392.138 332.654 394.768 331.61C397.399 330.566 400.264 329.898 402.384 327.977C406.428 324.219 405.957 317.496 405.054 311.816C404.151 306.179 403.484 299.497 407.37 295.53C400.225 296.992 392.923 298.495 386.72 302.504C380.517 306.513 375.57 313.612 375.924 321.337C376.12 325.221 377.533 329.355 375.884 332.78C374.079 336.496 369.25 337.958 368.033 341.925C366.619 346.477 370.82 350.653 372.469 355.121C374.039 359.338 373.293 364.057 373.647 368.525C374 373.035 376.199 378.13 380.399 378.798L382.244 381.22Z" fill="#FFBE55"/>
<path opacity="0.31" d="M382.244 381.22C385.032 373.662 387.859 365.268 385.228 357.668C384.6 355.831 383.619 353.868 384.207 351.989C384.993 349.441 388.133 348.565 389.154 346.143C390.332 343.47 388.487 340.38 388.958 337.498C389.429 334.575 392.138 332.654 394.768 331.61C397.399 330.566 400.264 329.898 402.384 327.977C406.428 324.219 405.957 317.496 405.054 311.816C404.151 306.179 403.484 299.497 407.37 295.53C400.225 296.992 392.923 298.495 386.72 302.504C380.517 306.513 375.57 313.612 375.924 321.337C376.12 325.221 377.533 329.355 375.884 332.78C374.079 336.496 369.25 337.958 368.033 341.925C366.619 346.477 370.82 350.653 372.469 355.121C374.039 359.338 373.293 364.057 373.647 368.525C374 373.035 376.199 378.13 380.399 378.798L382.244 381.22Z" fill="white"/>
<path d="M379.378 371.323C379.3 349.358 383.304 303.381 407.135 295.697" stroke="white" stroke-width="0.75" stroke-miterlimit="10" stroke-linecap="round"/>
<path d="M365.638 379.383C361.398 370.948 357.001 361.552 359.082 352.239C359.592 349.984 360.456 347.562 359.553 345.433C358.336 342.593 354.527 341.967 352.996 339.294C351.308 336.371 353.036 332.445 352.093 329.147C351.151 325.764 347.736 323.968 344.556 323.091C341.376 322.256 337.921 321.922 335.173 319.918C329.951 316.118 329.637 308.142 329.951 301.418C330.265 294.695 330.187 286.761 325.122 282.71C333.681 283.378 342.436 284.088 350.209 287.888C357.982 291.688 364.735 299.289 365.284 308.392C365.559 312.944 364.421 317.997 366.816 321.797C369.407 325.889 375.256 326.892 377.219 331.36C379.457 336.496 375.099 341.967 373.725 347.437C372.469 352.573 373.922 358.002 374.079 363.306C374.236 368.609 372.312 374.915 367.483 376.334L365.638 379.383Z" fill="#FFBE55"/>
<path d="M367.719 367.356C364.97 341.591 354.37 288.348 325.436 282.877" stroke="white" stroke-width="0.75" stroke-miterlimit="10" stroke-linecap="round"/>
<path d="M392.452 428.868H355.156C352.564 428.868 350.444 426.613 350.444 423.857L347.304 366.646C347.304 363.89 349.424 361.635 352.015 361.635H395.593C398.184 361.635 400.304 363.89 400.304 366.646L397.163 423.857C397.163 426.613 395.043 428.868 392.452 428.868Z" fill="#CCE9FF"/>
<path d="M54.2512 247.175L78.3168 243.293L94.6787 358.072L70.613 361.953L54.2512 247.175Z" fill="#FFBE55"/>
<path d="M66.2756 245.245L78.3085 243.304L94.6703 358.083L82.6375 360.024L66.2756 245.245Z" fill="#FFBE55"/>
<path d="M78.3385 243.415L54.2726 247.298L59.9259 231.889L63.1452 223.203L68.6415 230.511L78.3385 243.415Z" fill="#FFEBC2"/>
<path d="M68.6415 230.511L59.9259 231.889L63.1452 223.203L68.6415 230.511Z" fill="#0E538C"/>
<path d="M97.6601 217.015L121.903 219.324L112.169 334.951L87.9258 332.642L97.6601 217.015Z" fill="#FFBE55"/>
<path d="M109.805 218.179L121.927 219.334L112.192 334.96L100.071 333.805L109.805 218.179Z" fill="#FFBE55"/>
<path d="M121.916 219.445L97.6541 217.148L106.605 203.618L111.67 195.976L115.36 204.453L121.916 219.445Z" fill="#FFEBC2"/>
<path d="M115.36 204.453L106.605 203.618L111.67 195.976L115.36 204.453Z" fill="#0E538C"/>
<path d="M137.856 429.285H42.22L29.6963 271.853H145.511L137.856 429.285Z" fill="#CCE9FF"/>
<path opacity="0.5" d="M87.6037 429.285H137.856L145.511 271.853H87.6037V429.285Z" fill="#CCE9FF"/>
<path d="M108.607 384.853H351.622V420.39H108.607V384.853Z" fill="#FFEBC2"/>
<path d="M109.628 384.853V420.391H364.578V423.063C364.578 426.362 361.869 429.035 358.532 429.035H110.727C102.836 429.035 96.437 422.771 96.437 415.004V391.243C96.437 383.475 102.836 377.211 110.727 377.211H358.532C361.869 377.211 364.578 379.884 364.578 383.183V384.895H109.628V384.853Z" fill="#FFBE55"/>
<path d="M108.607 400.68H351.622V420.349H108.607V400.68Z" fill="#FFEBC2"/>
<path d="M140.015 341.591H337.489V372.493H140.015V341.591Z" fill="#CCE9FF"/>
<path d="M140.015 341.591V372.493H344.948V374.831C344.948 377.712 342.75 380.009 340.08 380.009H140.879C134.558 380.009 129.415 374.539 129.415 367.815V347.145C129.415 340.421 134.558 334.951 140.879 334.951H340.08C342.75 334.951 344.948 337.289 344.948 340.129V341.632H140.015V341.591Z" fill="#2A94F4"/>
<path d="M225.364 236.399C222.656 232.599 222.42 227.379 224.972 223.412C227.013 220.238 228.387 216.313 228.23 213.432C227.916 208.253 224.893 203.493 220.771 200.653C215.353 196.895 208.13 196.352 202.28 199.275C196.43 202.198 192.19 208.462 191.444 215.269C190.895 220.155 191.955 225.5 189.599 229.759C187.872 232.808 184.692 234.604 181.551 235.815C178.371 236.984 175.034 237.777 172.129 239.573C169.224 241.369 166.75 244.459 166.79 248.05C166.829 250.764 168.281 253.27 168.439 255.943C168.674 259.868 166.083 263.334 163.335 265.923C160.547 268.512 157.367 270.767 155.483 274.15C152.381 279.745 153.834 287.304 157.76 292.315C161.686 297.326 167.575 300.124 173.464 301.752C189.56 306.262 206.52 303.339 223.127 303.047C228.27 302.963 233.53 303.13 238.516 301.752C243.502 300.374 248.37 297.201 250.451 292.19C252.571 287.178 251.511 281.082 248.684 276.53C245.858 271.978 241.422 268.679 236.75 266.341C233.373 264.628 229.761 263.292 227.013 260.62C224.265 257.947 222.656 253.395 224.501 249.929C225.207 248.593 226.385 247.549 227.053 246.213C228.387 243.624 227.838 240.325 226.346 237.819C226.071 237.401 225.757 236.942 225.364 236.399Z" fill="#0E538C"/>
<path d="M140.015 355.371H337.489V372.493H140.015V355.371Z" fill="#CCE9FF"/>
<path d="M229.133 311.524L253.474 329.898L283.311 395.46H277.815L244.444 337.415C244.444 337.415 233.059 337.833 229.133 334.074C225.207 330.316 202.633 314.03 202.633 314.03L229.133 311.524Z" fill="#0B4870"/>
<path d="M186.066 306.262C181.63 319.041 184.77 336.997 199.689 337.832C214.607 338.668 219.319 337.832 219.319 337.832L248.37 400.471H255.044L232.274 330.316L204.596 314.03L186.066 306.262Z" fill="#0E538C"/>
<path d="M208.719 233.434C212.644 238.863 222.067 253.896 225.6 270.6C229.133 287.304 238.948 311.524 238.948 311.524H227.563L216.57 271.853L206.363 234.687L208.719 233.434Z" fill="#4EA3FB"/>
<path d="M220.81 211.26C221.399 221.491 217.199 228.507 211.192 228.841C205.185 229.175 201.259 219.904 203.065 211.26C207.266 203.576 212.998 202.95 212.998 202.95H216.61L220.81 211.26Z" fill="#FFE3CA"/>
<path d="M216.806 205.163C215.707 208.755 213.273 211.845 210.132 213.599C206.991 215.353 203.222 215.77 199.807 214.684L208.365 201.697H215.707L222.734 207.627L221.674 214.434C218.926 212.221 216.806 205.163 216.806 205.163Z" fill="#0E538C"/>
<path d="M209.386 227.63C208.13 232.808 208.522 238.236 208.522 239.072C207.344 240.742 201.848 240.324 201.063 234.478C202.241 226.961 204.596 218.61 204.596 218.61L206.559 223.203L209.386 227.63Z" fill="#FFE3CA"/>
<path d="M201.848 230.052C196.941 231.764 180.452 239.698 179.667 241.369C180.844 245.962 186.733 314.03 186.733 314.03H213.43C213.43 314.03 209.896 276.446 211.859 273.941C213.822 271.435 220.104 262.666 219.319 261.413C218.533 260.16 208.561 233.225 208.561 233.225L201.848 230.052Z" fill="#2A94F4"/>
<path d="M179.667 241.368C175.819 244.5 159.644 272.688 164.748 287.721C169.852 302.755 186.537 311.607 186.537 311.607V303.339C186.537 303.339 172.993 291.897 173.778 283.545C174.563 275.193 183.985 258.072 183.985 258.072L179.667 241.368Z" fill="#4EA3FB"/>
<path d="M242.913 318.832H185.124C183.318 318.832 181.826 317.245 181.826 315.324L180.256 275.987C180.256 274.066 181.747 272.479 183.553 272.479H243.699C245.504 272.479 246.996 274.066 246.996 275.987L246.211 315.324C246.211 317.245 244.719 318.832 242.913 318.832Z" fill="#FFBE55"/>
<path d="M254.102 400.471C257.989 401.39 263.25 405.942 265.762 408.28C266.273 408.74 265.959 409.658 265.252 409.658C261.208 409.575 252.061 409.115 249.941 407.194C247.193 404.689 247.978 400.513 247.978 400.513H254.102V400.471ZM283.233 395.293C286.687 396.295 291.241 400.555 293.519 402.851C294.029 403.353 293.636 404.23 292.969 404.188C289.161 403.895 280.995 403.102 279.15 401.223C276.716 398.801 277.619 395.001 277.619 395.001L283.233 395.293Z" fill="#1A87D8"/>
<path d="M213.822 301.919C217.075 301.919 219.711 299.115 219.711 295.655C219.711 292.196 217.075 289.392 213.822 289.392C210.57 289.392 207.933 292.196 207.933 295.655C207.933 299.115 210.57 301.919 213.822 301.919Z" fill="white"/>
<path d="M162 384.603L154.541 380.009L147.081 384.603V355.371H162V384.603ZM277.658 211.511C277.658 212.304 277.383 213.014 276.912 213.599C277.383 214.141 277.658 214.893 277.658 215.686V218.276C277.658 218.818 277.501 219.361 277.265 219.821C277.501 220.28 277.658 220.823 277.658 221.366V223.955C277.658 225.667 276.362 227.045 274.753 227.045H249.47C247.86 227.045 246.564 225.667 246.564 223.955V221.324C246.564 220.781 246.721 220.238 246.957 219.779C246.721 219.32 246.564 218.777 246.564 218.234V215.645C246.564 214.851 246.839 214.141 247.31 213.557C246.839 213.014 246.564 212.262 246.564 211.469V208.88C246.564 207.168 247.86 205.79 249.47 205.79H274.753C276.362 205.79 277.658 207.168 277.658 208.88V211.511ZM297.837 152.964C297.837 168.039 289.593 181.026 277.658 187.207V201.238C277.658 202.282 276.833 203.159 275.852 203.159H248.37C247.389 203.159 246.564 202.282 246.564 201.238V187.207C234.63 181.068 226.385 168.039 226.385 152.964C226.385 131.959 242.364 114.963 262.111 114.963C281.859 114.963 297.837 132.001 297.837 152.964Z" fill="#FFBE55"/>
<path opacity="0.23" d="M274.281 213.807H250.333M274.281 219.654H250.333" stroke="#7F7F7F" stroke-width="2" stroke-miterlimit="10" stroke-linecap="round"/>
<path d="M268.236 157.641C267.804 157.223 267.176 157.015 266.508 157.098C265.684 157.182 264.899 157.683 264.388 158.393C263.956 159.019 263.721 159.771 263.603 160.481C263.25 160.272 262.857 160.063 262.504 159.813L262.386 159.729H261.876L261.758 159.813C261.365 160.063 261.012 160.272 260.659 160.481C260.541 159.771 260.305 159.019 259.873 158.393C259.402 157.683 258.578 157.182 257.753 157.098C257.086 157.015 256.497 157.223 256.026 157.641C255.437 158.226 255.241 159.061 255.437 159.938C255.751 161.107 256.654 162.068 257.714 162.276C258.381 162.402 259.01 162.36 259.677 162.193C260.659 175.765 261.051 189.503 260.776 203.075H261.954C262.229 189.462 261.836 175.681 260.855 162.109C260.855 161.984 260.855 161.859 260.816 161.733C261.287 161.525 261.719 161.274 262.15 160.982C262.582 161.232 263.014 161.525 263.485 161.733C263.485 161.859 263.485 161.984 263.446 162.109C262.464 175.681 262.072 189.462 262.347 203.075H263.524C263.25 189.503 263.642 175.723 264.624 162.193C265.252 162.36 265.919 162.443 266.587 162.276C267.607 162.068 268.55 161.107 268.864 159.938C269.021 159.061 268.824 158.226 268.236 157.641ZM257.91 161.107C257.321 160.982 256.733 160.355 256.536 159.646C256.458 159.353 256.419 158.894 256.772 158.602C256.968 158.393 257.243 158.351 257.439 158.351H257.596C258.067 158.393 258.578 158.685 258.892 159.144C259.245 159.646 259.441 160.272 259.52 160.982C258.97 161.149 258.46 161.191 257.91 161.107ZM267.686 159.646C267.49 160.355 266.94 160.982 266.312 161.107C265.801 161.232 265.252 161.149 264.741 160.982C264.859 160.272 265.016 159.646 265.37 159.144C265.644 158.727 266.155 158.435 266.665 158.351C266.901 158.309 267.215 158.351 267.49 158.602C267.764 158.894 267.725 159.353 267.686 159.646Z" fill="white"/>
<path d="M252.689 121.937C244.052 125.278 229.919 137.388 231.096 157.015" stroke="white" stroke-width="4" stroke-miterlimit="10" stroke-linecap="round"/>
<path d="M205.381 190.005C210.91 190.005 215.393 185.237 215.393 179.356C215.393 173.475 210.91 168.708 205.381 168.708C199.852 168.708 195.37 173.475 195.37 179.356C195.37 185.237 199.852 190.005 205.381 190.005Z" fill="#FFBE55"/>
<path d="M312.559 149.08C315.053 149.08 317.074 146.93 317.074 144.278C317.074 141.626 315.053 139.476 312.559 139.476C310.066 139.476 308.044 141.626 308.044 144.278C308.044 146.93 310.066 149.08 312.559 149.08Z" fill="#FFBE55"/>
<path d="M297.837 227.588C301.957 227.588 305.296 224.036 305.296 219.654C305.296 215.272 301.957 211.719 297.837 211.719C293.717 211.719 290.378 215.272 290.378 219.654C290.378 224.036 293.717 227.588 297.837 227.588Z" fill="#FFBE55"/>
<path d="M226.385 116.926C230.505 116.926 233.844 113.374 233.844 108.992C233.844 104.61 230.505 101.057 226.385 101.057C222.266 101.057 218.926 104.61 218.926 108.992C218.926 113.374 222.266 116.926 226.385 116.926Z" fill="#FFBE55"/>
<path opacity="0.14" d="M162 384.603L154.541 380.009L147.081 384.603V355.371H162V384.603Z" fill="#0C0C0C"/>
</g>
<defs>
<filter id="filter0_dd_1_142" x="-15" y="-10" width="460" height="487" filterUnits="userSpaceOnUse" color-interpolation-filters="sRGB">
<feFlood flood-opacity="0" result="BackgroundImageFix"/>
<feColorMatrix in="SourceAlpha" type="matrix" values="0 0 0 0 0 0 0 0 0 0 0 0 0 0 0 0 0 0 127 0" result="hardAlpha"/>
<feOffset dy="4"/>
<feGaussianBlur stdDeviation="2"/>
<feColorMatrix type="matrix" values="0 0 0 0 0 0 0 0 0 0 0 0 0 0 0 0 0 0 0.3 0"/>
<feBlend mode="normal" in2="BackgroundImageFix" result="effect1_dropShadow_1_142"/>
<feColorMatrix in="SourceAlpha" type="matrix" values="0 0 0 0 0 0 0 0 0 0 0 0 0 0 0 0 0 0 127 0" result="hardAlpha"/>
<feMorphology radius="6" operator="dilate" in="SourceAlpha" result="effect2_dropShadow_1_142"/>
<feOffset dy="8"/>
<feGaussianBlur stdDeviation="6"/>
<feColorMatrix type="matrix" values="0 0 0 0 0 0 0 0 0 0 0 0 0 0 0 0 0 0 0.15 0"/>
<feBlend mode="normal" in2="effect1_dropShadow_1_142" result="effect2_dropShadow_1_142"/>
<feBlend mode="normal" in="SourceGraphic" in2="effect2_dropShadow_1_142" result="shape"/>
</filter>
</defs>
</svg>
