<svg width="352" height="353" viewBox="0 0 352 353" fill="none" xmlns="http://www.w3.org/2000/svg">
<path d="M121.425 28.6946C157.794 4.0747 208.903 9.09305 241.055 45.6369C258.634 65.6245 265.775 93.1182 284.022 112.677C304.566 134.68 329.118 156.083 338.429 186.108C348.325 218.019 339.64 254.606 317.51 279.012C290.577 308.693 250.993 299.771 213.58 299.299C60.3786 297.326 -53.489 192.284 91.403 62.7937C103.512 51.8991 109.4 36.8012 121.425 28.6946Z" fill="#CCE9FF"/>
<path d="M257.215 120.526H208.361C205.605 120.526 203.35 118.21 203.35 115.379V82.7813C203.35 79.9504 205.605 77.6343 208.361 77.6343H257.215C259.971 77.6343 262.225 79.9504 262.225 82.7813V115.379C262.225 118.21 259.971 120.526 257.215 120.526Z" fill="white"/>
<path d="M200.678 83.6821V115.894C200.678 120.355 204.185 123.958 208.528 123.958H255.545C259.887 123.958 263.395 120.355 263.395 115.894V83.6821C263.395 79.2213 259.887 75.6184 255.545 75.6184H208.528C204.185 75.6184 200.678 79.2213 200.678 83.6821ZM204.77 116.709C204.728 116.451 204.603 116.194 204.603 115.937V83.725C204.603 83.296 204.728 82.91 204.853 82.5669L221.43 97.193L204.77 116.709ZM255.545 79.6502C255.795 79.6502 256.046 79.736 256.296 79.8218L232.036 101.182L207.776 79.8218C208.027 79.7789 208.235 79.6502 208.528 79.6502H255.545ZM242.642 97.1072L259.219 82.4811C259.344 82.8671 259.47 83.2532 259.47 83.6392V115.851C259.47 116.151 259.386 116.366 259.303 116.623L242.642 97.1072ZM208.528 119.926C208.11 119.926 207.776 119.797 207.4 119.711L224.395 99.7665L230.742 105.385C231.117 105.728 231.577 105.857 232.036 105.857C232.495 105.857 232.955 105.686 233.331 105.385L239.677 99.7665L256.672 119.711C256.296 119.84 255.962 119.926 255.545 119.926H208.528Z" fill="#FFBE55"/>
<path d="M281.015 212.744H244.27C241.515 212.744 239.26 210.427 239.26 207.597V183.835C239.26 181.004 241.515 178.688 244.27 178.688H281.015C283.771 178.688 286.026 181.004 286.026 183.835V207.597C286.026 210.427 283.771 212.744 281.015 212.744Z" fill="white"/>
<path d="M237.924 183.277V208.755C237.924 212.272 240.679 215.146 244.145 215.146H281.349C284.773 215.146 287.571 212.315 287.571 208.755V183.277C287.571 179.76 284.815 176.886 281.349 176.886H244.145C240.721 176.929 237.924 179.76 237.924 183.277ZM241.139 209.398C241.097 209.184 241.014 209.012 241.014 208.755V183.277C241.014 182.934 241.097 182.634 241.181 182.333L254.292 193.871L241.139 209.398ZM281.349 180.103C281.558 180.103 281.725 180.189 281.934 180.232L262.768 197.131L243.602 180.232C243.811 180.189 243.978 180.103 244.187 180.103H281.349ZM271.119 193.914L284.231 182.376C284.314 182.676 284.398 182.977 284.398 183.32V208.798C284.398 209.012 284.314 209.226 284.272 209.441L271.119 193.914ZM244.145 211.929C243.811 211.929 243.561 211.843 243.268 211.757L256.714 195.973L261.766 200.391C262.058 200.648 262.434 200.777 262.768 200.777C263.144 200.777 263.478 200.648 263.77 200.391L268.823 195.973L282.268 211.757C281.976 211.843 281.684 211.929 281.391 211.929H244.145Z" fill="#2A94F4"/>
<path d="M299.137 78.2347V95.4772C299.137 97.8791 301.016 99.8093 303.355 99.8093H328.533C330.872 99.8093 332.751 97.8791 332.751 95.4772V78.2347C332.751 75.8327 330.872 73.9026 328.533 73.9026H303.355C301.016 73.9026 299.137 75.8327 299.137 78.2347ZM301.35 95.9061C301.309 95.7774 301.267 95.6488 301.267 95.4772V78.2347C301.267 78.0202 301.309 77.8057 301.392 77.5913L310.286 85.3976L301.35 95.9061ZM328.533 76.0901C328.659 76.0901 328.784 76.133 328.909 76.1759L315.923 87.628L302.937 76.1759C303.062 76.133 303.188 76.0901 303.313 76.0901H328.533ZM321.644 85.4405L330.538 77.6342C330.579 77.8486 330.663 78.0202 330.663 78.2776V95.5201C330.663 95.6488 330.621 95.8203 330.579 95.949L321.644 85.4405ZM303.355 97.6218C303.146 97.6218 302.937 97.5789 302.77 97.4931L311.873 86.813L315.297 89.8155C315.506 89.987 315.756 90.0728 315.965 90.0728C316.215 90.0728 316.466 89.987 316.633 89.8155L320.057 86.813L329.16 97.4931C328.951 97.536 328.784 97.6218 328.575 97.6218H303.355Z" fill="#CCE9FF"/>
<path d="M306.069 167.278H291.037C288.281 167.278 286.026 164.962 286.026 162.131V152.952C286.026 150.122 288.281 147.805 291.037 147.805H306.069C308.825 147.805 311.08 150.122 311.08 152.952V162.131C311.08 164.962 308.825 167.278 306.069 167.278Z" fill="white"/>
<path d="M285.4 150.808V164.19C285.4 166.034 286.861 167.536 288.657 167.536H308.198C309.994 167.536 311.455 166.034 311.455 164.19V150.808C311.455 148.963 309.994 147.462 308.198 147.462H288.657C286.861 147.505 285.4 148.963 285.4 150.808ZM287.112 164.533C287.07 164.404 287.028 164.319 287.028 164.19V150.808C287.028 150.636 287.07 150.465 287.112 150.336L294.001 156.384L287.112 164.533ZM308.198 149.178C308.324 149.178 308.407 149.221 308.491 149.221L298.428 158.099L288.364 149.221C288.448 149.221 288.573 149.178 288.657 149.178H308.198ZM302.812 156.384L309.702 150.336C309.743 150.507 309.785 150.636 309.785 150.808V164.19C309.785 164.319 309.743 164.404 309.702 164.533L302.812 156.384ZM288.657 165.863C288.49 165.863 288.323 165.82 288.197 165.777L295.254 157.499L297.885 159.815C298.052 159.944 298.219 160.029 298.428 160.029C298.636 160.029 298.803 159.944 298.97 159.815L301.601 157.499L308.658 165.777C308.491 165.82 308.365 165.863 308.198 165.863H288.657Z" fill="#FFBE55"/>
<path d="M255.712 40.5758V54.4728C255.712 56.4029 257.215 57.947 259.094 57.947H279.345C281.224 57.947 282.727 56.4029 282.727 54.4728V40.5758C282.727 38.6457 281.224 37.1016 279.345 37.1016H259.094C257.256 37.1016 255.712 38.6457 255.712 40.5758ZM257.507 54.8159C257.465 54.6872 257.424 54.6014 257.424 54.4728V40.5758C257.424 40.4042 257.465 40.2327 257.507 40.0611L264.647 46.3662L257.507 54.8159ZM279.387 38.8601C279.512 38.8601 279.596 38.903 279.721 38.9459L269.282 48.1677L258.843 38.9459C258.968 38.903 259.052 38.8601 259.177 38.8601H279.387ZM273.833 46.3662L280.974 40.0611C281.015 40.2327 281.057 40.4042 281.057 40.5758V54.4728C281.057 54.6014 281.015 54.6872 280.974 54.8159L273.833 46.3662ZM259.094 56.1884C258.927 56.1884 258.76 56.1455 258.593 56.1027L265.9 47.5243L268.656 49.9262C268.823 50.0549 268.99 50.1407 269.199 50.1407C269.407 50.1407 269.574 50.0549 269.741 49.9262L272.497 47.5243L279.805 56.1027C279.638 56.1455 279.512 56.1884 279.303 56.1884H259.094Z" fill="#2A94F4"/>
<path d="M221.806 127.946C222.498 127.946 223.059 127.37 223.059 126.66C223.059 125.949 222.498 125.373 221.806 125.373C221.114 125.373 220.553 125.949 220.553 126.66C220.553 127.37 221.114 127.946 221.806 127.946Z" fill="#6B6B6B"/>
<path d="M217.839 130.134C218.531 130.134 219.092 129.558 219.092 128.847C219.092 128.136 218.531 127.56 217.839 127.56C217.147 127.56 216.586 128.136 216.586 128.847C216.586 129.558 217.147 130.134 217.839 130.134Z" fill="#6B6B6B"/>
<path d="M213.956 132.45C214.648 132.45 215.208 131.874 215.208 131.163C215.208 130.453 214.648 129.876 213.956 129.876C213.264 129.876 212.703 130.453 212.703 131.163C212.703 131.874 213.264 132.45 213.956 132.45Z" fill="#6B6B6B"/>
<path d="M210.824 135.753C211.516 135.753 212.077 135.177 212.077 134.466C212.077 133.755 211.516 133.179 210.824 133.179C210.132 133.179 209.572 133.755 209.572 134.466C209.572 135.177 210.132 135.753 210.824 135.753Z" fill="#6B6B6B"/>
<path d="M208.152 139.441C208.844 139.441 209.405 138.865 209.405 138.155C209.405 137.444 208.844 136.868 208.152 136.868C207.46 136.868 206.899 137.444 206.899 138.155C206.899 138.865 207.46 139.441 208.152 139.441Z" fill="#6B6B6B"/>
<path d="M206.106 143.559C206.798 143.559 207.358 142.983 207.358 142.272C207.358 141.562 206.798 140.986 206.106 140.986C205.414 140.986 204.853 141.562 204.853 142.272C204.853 142.983 205.414 143.559 206.106 143.559Z" fill="#6B6B6B"/>
<path d="M204.811 147.977C205.503 147.977 206.064 147.401 206.064 146.69C206.064 145.979 205.503 145.403 204.811 145.403C204.12 145.403 203.559 145.979 203.559 146.69C203.559 147.401 204.12 147.977 204.811 147.977Z" fill="#6B6B6B"/>
<path d="M228.696 166.206C229.387 166.206 229.948 165.63 229.948 164.919C229.948 164.208 229.387 163.632 228.696 163.632C228.004 163.632 227.443 164.208 227.443 164.919C227.443 165.63 228.004 166.206 228.696 166.206Z" fill="#6B6B6B"/>
<path d="M224.186 166.206C224.878 166.206 225.439 165.63 225.439 164.919C225.439 164.208 224.878 163.632 224.186 163.632C223.494 163.632 222.933 164.208 222.933 164.919C222.933 165.63 223.494 166.206 224.186 166.206Z" fill="#6B6B6B"/>
<path d="M219.676 166.206C220.368 166.206 220.929 165.63 220.929 164.919C220.929 164.208 220.368 163.632 219.676 163.632C218.985 163.632 218.424 164.208 218.424 164.919C218.424 165.63 218.985 166.206 219.676 166.206Z" fill="#6B6B6B"/>
<path d="M215.167 166.206C215.859 166.206 216.419 165.63 216.419 164.919C216.419 164.208 215.859 163.632 215.167 163.632C214.475 163.632 213.914 164.208 213.914 164.919C213.914 165.63 214.475 166.206 215.167 166.206Z" fill="#6B6B6B"/>
<path d="M210.657 166.206C211.349 166.206 211.91 165.63 211.91 164.919C211.91 164.208 211.349 163.632 210.657 163.632C209.965 163.632 209.405 164.208 209.405 164.919C209.405 165.63 209.965 166.206 210.657 166.206Z" fill="#6B6B6B"/>
<path d="M280.89 158.743C281.582 158.743 282.143 158.167 282.143 157.456C282.143 156.745 281.582 156.169 280.89 156.169C280.198 156.169 279.637 156.745 279.637 157.456C279.637 158.167 280.198 158.743 280.89 158.743Z" fill="#6B6B6B"/>
<path d="M276.381 158.614C277.072 158.614 277.633 158.038 277.633 157.327C277.633 156.617 277.072 156.041 276.381 156.041C275.689 156.041 275.128 156.617 275.128 157.327C275.128 158.038 275.689 158.614 276.381 158.614Z" fill="#6B6B6B"/>
<path d="M271.871 158.485C272.563 158.485 273.124 157.909 273.124 157.199C273.124 156.488 272.563 155.912 271.871 155.912C271.179 155.912 270.618 156.488 270.618 157.199C270.618 157.909 271.179 158.485 271.871 158.485Z" fill="#6B6B6B"/>
<path d="M267.487 159.601C268.178 159.601 268.739 159.025 268.739 158.314C268.739 157.603 268.178 157.027 267.487 157.027C266.795 157.027 266.234 157.603 266.234 158.314C266.234 159.025 266.795 159.601 267.487 159.601Z" fill="#6B6B6B"/>
<path d="M263.144 160.845C263.836 160.845 264.397 160.268 264.397 159.558C264.397 158.847 263.836 158.271 263.144 158.271C262.452 158.271 261.891 158.847 261.891 159.558C261.891 160.268 262.452 160.845 263.144 160.845Z" fill="#6B6B6B"/>
<path d="M259.428 163.418C260.12 163.418 260.68 162.842 260.68 162.131C260.68 161.421 260.12 160.844 259.428 160.844C258.736 160.844 258.175 161.421 258.175 162.131C258.175 162.842 258.736 163.418 259.428 163.418Z" fill="#6B6B6B"/>
<path d="M256.046 166.42C256.737 166.42 257.298 165.844 257.298 165.134C257.298 164.423 256.737 163.847 256.046 163.847C255.354 163.847 254.793 164.423 254.793 165.134C254.793 165.844 255.354 166.42 256.046 166.42Z" fill="#6B6B6B"/>
<path d="M253.331 170.109C254.023 170.109 254.584 169.533 254.584 168.822C254.584 168.112 254.023 167.536 253.331 167.536C252.64 167.536 252.079 168.112 252.079 168.822C252.079 169.533 252.64 170.109 253.331 170.109Z" fill="#6B6B6B"/>
<path d="M251.411 174.27C252.102 174.27 252.663 173.693 252.663 172.983C252.663 172.272 252.102 171.696 251.411 171.696C250.719 171.696 250.158 172.272 250.158 172.983C250.158 173.693 250.719 174.27 251.411 174.27Z" fill="#6B6B6B"/>
<path d="M301.893 105.128C302.585 105.128 303.146 104.552 303.146 103.841C303.146 103.131 302.585 102.554 301.893 102.554C301.201 102.554 300.641 103.131 300.641 103.841C300.641 104.552 301.201 105.128 301.893 105.128Z" fill="#6B6B6B"/>
<path d="M298.177 107.787C298.869 107.787 299.43 107.211 299.43 106.5C299.43 105.79 298.869 105.214 298.177 105.214C297.485 105.214 296.924 105.79 296.924 106.5C296.924 107.211 297.485 107.787 298.177 107.787Z" fill="#6B6B6B"/>
<path d="M294.043 109.546C294.735 109.546 295.296 108.97 295.296 108.259C295.296 107.548 294.735 106.972 294.043 106.972C293.351 106.972 292.791 107.548 292.791 108.259C292.791 108.97 293.351 109.546 294.043 109.546Z" fill="#6B6B6B"/>
<path d="M289.826 111.219C290.518 111.219 291.079 110.642 291.079 109.932C291.079 109.221 290.518 108.645 289.826 108.645C289.134 108.645 288.573 109.221 288.573 109.932C288.573 110.642 289.134 111.219 289.826 111.219Z" fill="#6B6B6B"/>
<path d="M285.442 112.205C286.133 112.205 286.694 111.629 286.694 110.918C286.694 110.208 286.133 109.632 285.442 109.632C284.75 109.632 284.189 110.208 284.189 110.918C284.189 111.629 284.75 112.205 285.442 112.205Z" fill="#6B6B6B"/>
<path d="M281.015 113.106C281.707 113.106 282.268 112.53 282.268 111.819C282.268 111.108 281.707 110.532 281.015 110.532C280.324 110.532 279.763 111.108 279.763 111.819C279.763 112.53 280.324 113.106 281.015 113.106Z" fill="#6B6B6B"/>
<path d="M276.506 113.492C277.198 113.492 277.759 112.916 277.759 112.205C277.759 111.495 277.198 110.918 276.506 110.918C275.814 110.918 275.253 111.495 275.253 112.205C275.253 112.916 275.814 113.492 276.506 113.492Z" fill="#6B6B6B"/>
<path d="M271.996 113.663C272.688 113.663 273.249 113.087 273.249 112.377C273.249 111.666 272.688 111.09 271.996 111.09C271.304 111.09 270.744 111.666 270.744 112.377C270.744 113.087 271.304 113.663 271.996 113.663Z" fill="#6B6B6B"/>
<path d="M267.487 113.535C268.178 113.535 268.739 112.959 268.739 112.248C268.739 111.537 268.178 110.961 267.487 110.961C266.795 110.961 266.234 111.537 266.234 112.248C266.234 112.959 266.795 113.535 267.487 113.535Z" fill="#6B6B6B"/>
<path d="M250.45 50.8269C251.142 50.8269 251.703 50.2508 251.703 49.5402C251.703 48.8295 251.142 48.2534 250.45 48.2534C249.758 48.2534 249.198 48.8295 249.198 49.5402C249.198 50.2508 249.758 50.8269 250.45 50.8269Z" fill="#6B6B6B"/>
<path d="M246.108 52.0279C246.8 52.0279 247.36 51.4518 247.36 50.7411C247.36 50.0304 246.8 49.4543 246.108 49.4543C245.416 49.4543 244.855 50.0304 244.855 50.7411C244.855 51.4518 245.416 52.0279 246.108 52.0279Z" fill="#6B6B6B"/>
<path d="M242.517 54.73C243.209 54.73 243.769 54.1539 243.769 53.4432C243.769 52.7326 243.209 52.1565 242.517 52.1565C241.825 52.1565 241.264 52.7326 241.264 53.4432C241.264 54.1539 241.825 54.73 242.517 54.73Z" fill="#6B6B6B"/>
<path d="M239.844 58.2901C240.536 58.2901 241.097 57.714 241.097 57.0033C241.097 56.2927 240.536 55.7166 239.844 55.7166C239.153 55.7166 238.592 56.2927 238.592 57.0033C238.592 57.714 239.153 58.2901 239.844 58.2901Z" fill="#6B6B6B"/>
<path d="M238.258 62.6221C238.95 62.6221 239.51 62.046 239.51 61.3353C239.51 60.6247 238.95 60.0486 238.258 60.0486C237.566 60.0486 237.005 60.6247 237.005 61.3353C237.005 62.046 237.566 62.6221 238.258 62.6221Z" fill="#6B6B6B"/>
<path d="M237.757 67.2115C238.448 67.2115 239.009 66.6354 239.009 65.9247C239.009 65.214 238.448 64.6379 237.757 64.6379C237.065 64.6379 236.504 65.214 236.504 65.9247C236.504 66.6354 237.065 67.2115 237.757 67.2115Z" fill="#6B6B6B"/>
<path d="M238.091 71.8438C238.783 71.8438 239.343 71.2677 239.343 70.557C239.343 69.8464 238.783 69.2703 238.091 69.2703C237.399 69.2703 236.838 69.8464 236.838 70.557C236.838 71.2677 237.399 71.8438 238.091 71.8438Z" fill="#6B6B6B"/>
<path d="M165.269 301.101C165.603 300.972 165.895 300.886 166.229 300.758C166.229 300.758 166.104 300.5 165.895 299.986C162.471 292.694 133.994 235.047 79.0852 223.981C78.6676 223.895 78.2083 223.81 77.7907 223.724C70.8176 222.437 63.4686 221.88 55.702 222.266C55.702 222.266 44.8038 222.48 31.4002 232.174C31.108 232.388 30.8157 232.603 30.4816 232.817C24.4688 237.321 17.9967 243.797 11.7751 252.976L11.3993 253.491C11.3993 253.491 11.4828 253.748 11.6916 254.22C13.6123 258.767 24.8028 283 51.2759 298.913C51.61 299.128 51.9858 299.342 52.3198 299.514C76.3293 313.625 112.531 320.745 165.269 301.101Z" fill="#0B4870"/>
<path d="M166.104 301.358L166.229 300.758L166.354 300.157L165.895 300.029L11.7751 253.062L11.3993 253.577C11.3993 253.577 11.4828 253.834 11.6916 254.306L165.269 301.101L166.104 301.358Z" fill="white"/>
<path d="M52.3615 299.643L75.3689 273.135L74.6173 272.192L51.3176 299.042C51.6517 299.257 51.9857 299.428 52.3615 299.643ZM103.512 281.671L104.807 281.842L79.0851 224.024C78.6676 223.938 78.2083 223.853 77.7907 223.767L103.512 281.671ZM45.8059 264.514L46.7245 263.914L31.3584 232.217C31.0662 232.431 30.7739 232.645 30.4398 232.86L45.8059 264.514Z" fill="white"/>
<path d="M163.098 298.57L163.599 298.956C163.599 298.956 163.682 298.785 163.891 298.527C166.563 294.195 187.023 258.938 174.205 224.925C174.121 224.668 173.996 224.367 173.912 224.11C172.242 219.821 170.029 215.575 167.19 211.414C167.19 211.414 163.39 205.495 153.786 201.377C153.577 201.292 153.368 201.206 153.118 201.12C148.734 199.319 143.138 197.946 136.249 197.646H135.831C135.831 197.646 135.748 197.774 135.539 198.075C133.827 200.648 124.933 215.017 125.601 235.047C125.601 235.305 125.601 235.562 125.643 235.82C126.436 253.791 134.996 276.138 163.098 298.57Z" fill="#2A94F4"/>
<path d="M163.265 299.128L163.64 298.999L164.016 298.87L163.933 298.57L136.249 197.731H135.831C135.831 197.731 135.748 197.86 135.539 198.16L163.098 298.656L163.265 299.128Z" fill="white"/>
<path d="M125.643 235.819L147.272 239.551L147.481 238.822L125.559 235.047C125.601 235.305 125.601 235.562 125.643 235.819ZM152.366 257.952L152.7 258.724L174.205 224.968C174.121 224.71 173.996 224.41 173.912 224.153L152.366 257.952ZM141.76 220.336L142.387 220.636L153.744 201.42C153.535 201.334 153.327 201.249 153.076 201.163L141.76 220.336Z" fill="white"/>
<path d="M163.432 300.886C163.724 300.929 164.016 300.929 164.267 300.972V300.329C164.267 293.981 162.972 243.325 125.058 216.218C124.766 216.003 124.474 215.789 124.14 215.574C119.296 212.229 113.868 209.226 107.813 206.782C107.813 206.782 99.4202 203.093 85.8079 205.238C85.5156 205.28 85.1815 205.323 84.8892 205.366C78.7094 206.438 71.4857 208.712 63.5104 213.001C63.3433 213.087 63.2181 213.173 63.051 213.258C63.051 213.258 63.051 213.473 63.0093 213.902C62.8423 217.762 62.8005 238.779 77.3732 259.324C77.582 259.581 77.749 259.839 77.9578 260.139C91.2361 278.411 116.331 296.168 163.432 300.886Z" fill="#FFBE55"/>
<path d="M163.974 301.358L164.267 300.972L164.559 300.586L164.267 300.329L63.5104 213.001C63.3433 213.087 63.2181 213.173 63.051 213.258C63.051 213.258 63.051 213.473 63.0093 213.902L163.39 300.886L163.974 301.358Z" fill="white"/>
<path d="M77.9577 260.096L104.848 249.502L104.598 248.558L77.3732 259.281C77.5819 259.581 77.749 259.839 77.9577 260.096ZM123.304 265.415L124.223 266.015L125.1 216.175C124.808 215.96 124.515 215.746 124.181 215.532L123.304 265.415ZM85.3902 233.031L86.3089 232.946L85.8078 205.195C85.5155 205.237 85.1815 205.28 84.8892 205.323L85.3902 233.031Z" fill="white"/>
<path d="M187.775 303.374L186.23 315.813L181.011 317.743L182.389 302.816L187.775 303.374ZM163.974 303.374L162.429 315.813L157.21 317.743L158.588 302.816L163.974 303.374Z" fill="#DBA17B"/>
<path d="M170.739 149.478L162.513 160.244L170.363 164.619L179.173 153.424L170.739 149.478Z" fill="#CC9271"/>
<path d="M191.825 150.25C191.575 148.62 191.408 146.947 191.283 145.275C191.199 143.945 191.241 142.615 191.283 141.286C191.408 139.956 191.408 138.626 191.324 137.383C191.324 137.425 191.283 137.468 191.283 137.511C191.199 136.396 191.032 135.281 190.74 134.209C189.905 131.506 188.193 128.976 185.52 128.032C180.176 126.188 173.662 131.335 170.948 139.57C168.233 147.805 170.363 155.998 175.708 157.842C179.507 159.172 183.892 156.941 187.065 152.609C188.318 152.566 189.571 152.48 190.781 152.137C191.199 152.009 191.617 151.837 191.825 151.451C191.951 151.065 191.909 150.636 191.825 150.25Z" fill="#DBA17B"/>
<path d="M196.251 136.696C197.963 136.096 199.425 134.595 199.759 132.793C200.093 130.949 199.091 128.89 197.379 128.29C196.084 127.818 194.539 128.204 193.37 127.517C192.66 127.089 192.201 126.359 191.7 125.716C188.944 122.113 184.393 120.054 179.967 120.397C175.541 120.741 171.323 123.443 169.11 127.389C167.231 130.734 166.772 134.723 167.106 138.541C167.44 142.358 168.567 146.09 169.653 149.735C171.49 146.004 173.328 142.272 175.165 138.584C175.582 137.769 176 136.911 176.752 136.439C177.503 135.967 178.672 136.01 179.09 136.782C179.382 137.297 179.299 137.94 179.299 138.498C179.299 139.098 179.382 139.785 179.883 140.042C180.426 140.342 181.136 139.999 181.637 139.613C182.723 138.798 183.683 137.812 184.56 136.739C185.103 136.053 185.646 135.195 186.439 134.852C187.316 134.466 188.067 134.895 188.861 135.367C189.946 136.01 191.074 136.611 192.326 136.868C193.621 137.125 194.999 137.125 196.251 136.696ZM190.74 214.717C192.368 225.44 193.913 244.098 195.542 254.821C197.922 270.562 190.364 294.109 187.566 309.765C185.52 309.508 183.725 308.864 181.679 308.607C182.347 282.057 181.178 248.215 179.507 221.708C183.14 222.18 187.107 214.245 190.74 214.717Z" fill="#0B4870"/>
<path d="M165.394 222.18C167.524 222.308 169.611 220.335 171.741 220.507C174.33 220.679 177.127 221.193 179.591 221.965C182.055 222.737 184.936 220.378 187.357 219.521C187.859 223.81 186.982 231.444 186.188 235.691C184.351 245.642 182.222 255.507 179.758 265.286C178.422 270.691 174.455 275.88 172.367 281.027C171.49 283.215 170.655 285.488 169.862 287.719C168.192 292.351 165.311 305.39 163.64 310.022C161.594 309.851 159.506 309.808 157.46 309.636C157.669 304.961 159.465 291.493 159.632 286.818C159.966 279.012 163.766 270.819 166.772 263.613C165.269 256.15 165.227 248.044 165.269 240.409C165.311 233.675 165.352 228.871 165.394 222.18Z" fill="#0E538C"/>
<path d="M194.247 193.356C194.999 193.485 195.876 193.442 196.46 192.928C196.753 192.67 196.961 192.284 197.17 191.984C197.88 191.126 199.091 190.697 200.135 190.955C202.306 191.512 203.35 194.343 205.521 194.815C205.855 194.901 206.189 194.901 206.523 195.029C206.857 195.158 207.15 195.372 207.192 195.716C207.275 196.144 206.983 196.488 206.69 196.831C206.315 197.26 205.897 197.689 205.521 198.117C205.354 198.289 205.145 198.504 204.937 198.589C204.477 198.804 203.893 198.589 203.517 198.89C203.183 199.147 203.099 199.662 202.724 199.919C202.181 200.262 201.429 199.747 200.803 200.005C200.469 200.133 200.26 200.434 200.01 200.605C199.55 200.905 198.924 200.863 198.381 200.691C197.838 200.477 197.379 200.133 196.92 199.876C196.293 199.533 195.625 199.276 194.957 199.061C193.12 198.589 191.157 198.718 189.237 198.89C189.153 197.345 189.111 195.801 189.028 194.257C189.028 194 189.028 193.7 189.153 193.442C189.404 192.97 190.072 192.97 190.615 193.099C191.283 193.271 191.617 193.228 192.243 193.099C192.869 192.97 193.621 193.271 194.247 193.356Z" fill="#DBA17B"/>
<path d="M199.174 199.276C198.966 198.932 199.049 198.461 199.383 198.246L211.409 190.097C211.743 189.882 212.202 189.968 212.411 190.311C212.62 190.654 212.536 191.126 212.202 191.341L200.177 199.49C199.842 199.704 199.383 199.619 199.174 199.276Z" fill="#0B4870"/>
<path d="M189.571 309.379C189.738 308.993 190.197 308.864 190.489 309.122C191.784 310.237 195.249 312.767 202.139 314.397C202.139 314.397 203.809 314.741 205.02 316.756H179.466V312.124C179.466 311.609 180.05 311.352 180.426 311.652L181.428 312.51C181.888 312.939 182.514 313.154 183.098 313.154L186.773 313.196C187.566 313.196 188.276 312.725 188.568 311.953L189.571 309.379Z" fill="#CCE9FF"/>
<path d="M205.049 319.471H179.495V316.769H205.049V319.471Z" fill="#0E538C"/>
<path d="M164.601 310.837C164.851 310.537 165.352 310.58 165.561 310.923C166.396 312.424 168.86 315.984 174.747 319.973C174.747 319.973 176.209 320.917 176.71 323.19L152.659 314.311L154.204 309.937C154.371 309.465 154.997 309.379 155.247 309.851L155.874 311.009C156.166 311.566 156.667 311.995 157.252 312.21L160.676 313.497C161.427 313.797 162.262 313.539 162.763 312.939L164.601 310.837Z" fill="#CCE9FF"/>
<path d="M175.772 325.747L151.728 316.857L152.619 314.314L176.663 323.205L175.772 325.747Z" fill="#0E538C"/>
<path d="M189.946 191.169C191.784 197.474 193.162 207.382 194.038 213.902C194.247 215.446 194.122 221.279 193.078 222.394C192.452 223.081 176.292 224.925 169.57 227.198C168.651 227.498 164.267 229.257 163.39 228.871C162.137 228.313 161.469 222.652 161.761 221.322C165.645 204.122 165.645 216.776 159.966 182.934C158.838 176.157 156.667 169.895 158.922 163.418C159.674 161.273 165.352 155.011 165.352 155.011C165.352 155.011 167.273 157.113 169.236 158.314C170.864 159.3 172.994 161.059 174.372 161.402C180.677 162.903 187.733 183.577 189.946 191.169Z" fill="#2A94F4"/>
<path d="M182.138 237.063C182.681 238.264 182.931 239.594 183.057 240.881C183.224 243.154 182.973 245.427 182.347 247.572C181.428 247.357 180.677 246.499 180.551 245.513C180.969 246.199 180.593 247.229 179.841 247.443C179.09 247.657 178.255 246.928 178.297 246.113C178.088 246.8 177.336 247.314 176.668 247.186C175.958 247.057 175.415 246.371 175.457 245.642C175.749 245.856 175.666 246.371 175.415 246.585C175.123 246.8 174.706 246.757 174.413 246.585C174.121 246.414 173.912 246.07 173.787 245.727C173.578 245.127 173.495 244.483 173.453 243.84C173.244 241.095 173.077 238.307 172.868 235.562C172.827 235.176 172.827 234.79 172.994 234.447C173.328 233.803 174.204 233.718 174.956 233.761L177.837 233.889C178.464 233.932 179.132 233.889 179.716 234.104C180.76 234.618 181.637 236.034 182.138 237.063Z" fill="#DBA17B"/>
<path d="M171.699 172.64C171.365 178.43 171.031 184.263 170.655 190.054C170.446 193.271 170.279 196.53 170.739 199.704C171.115 202.364 171.908 204.937 172.701 207.468C175.582 216.647 178.464 225.826 181.386 235.004C178.297 234.79 175.165 234.576 172.075 234.361C169.611 224.539 164.851 206.996 164.434 205.409C161.01 194.386 159.799 182.676 160.884 171.181L171.699 172.64Z" fill="#2A94F4"/>
<path d="M157.419 116.237C157.419 104.871 145.268 95.6489 130.278 95.6489C115.287 95.6489 103.136 104.871 103.136 116.237C103.136 127.603 115.287 136.825 130.278 136.825C133.117 136.825 135.873 136.482 138.42 135.881L148.233 144.117V131.678C153.87 127.904 157.419 122.371 157.419 116.237Z" fill="#FFBE55"/>
<path d="M141.76 96.2923C141.76 87.0705 131.906 79.5645 119.713 79.5645C107.521 79.5645 97.6664 87.0276 97.6664 96.2923C97.6664 105.514 107.521 113.02 119.713 113.02C122.01 113.02 124.265 112.763 126.353 112.248L134.286 118.939V108.86C138.879 105.728 141.76 101.268 141.76 96.2923Z" fill="white"/>
<path d="M131.113 90.2872H107.312C106.978 90.2872 106.686 89.987 106.686 89.6439C106.686 89.3007 106.978 89.0005 107.312 89.0005H131.113C131.447 89.0005 131.739 89.3007 131.739 89.6439C131.739 89.987 131.447 90.2872 131.113 90.2872ZM131.113 94.9196H107.312C106.978 94.9196 106.686 94.6193 106.686 94.2762C106.686 93.9331 106.978 93.6328 107.312 93.6328H131.113C131.447 93.6328 131.739 93.9331 131.739 94.2762C131.739 94.6193 131.447 94.9196 131.113 94.9196ZM131.113 99.5948H107.312C106.978 99.5948 106.686 99.2945 106.686 98.9514C106.686 98.6083 106.978 98.308 107.312 98.308H131.113C131.447 98.308 131.739 98.6083 131.739 98.9514C131.739 99.2945 131.447 99.5948 131.113 99.5948ZM131.113 104.227H107.312C106.978 104.227 106.686 103.927 106.686 103.584C106.686 103.241 106.978 102.94 107.312 102.94H131.113C131.447 102.94 131.739 103.241 131.739 103.584C131.739 103.927 131.447 104.227 131.113 104.227Z" fill="#FFBE55"/>
</svg>
