<svg width="30" height="40" viewBox="0 0 30 40" fill="none" xmlns="http://www.w3.org/2000/svg">
<path d="M7.58758 28.3305C6.90868 27.6516 7.26258 27.843 5.6251 27.4048C4.88214 27.2056 4.22902 26.8228 3.6384 26.3642L0.0939034 35.0546C-0.249062 35.896 0.391557 36.8101 1.29936 36.7757L5.41572 36.6186L8.24695 39.6092C8.87194 40.2686 9.9688 40.0631 10.3118 39.2217L14.3781 29.2516C13.5313 29.7235 12.5914 30 11.6196 30C10.0961 30 8.66491 29.4071 7.58758 28.3305ZM29.9061 35.0546L26.3616 26.3642C25.771 26.8235 25.1179 27.2056 24.3749 27.4048C22.7288 27.8454 23.0898 27.6532 22.4124 28.3305C21.3351 29.4071 19.9031 30 18.3797 30C17.4078 30 16.468 29.7227 15.6211 29.2516L19.6875 39.2217C20.0304 40.0631 21.1281 40.2686 21.7523 39.6092L24.5843 36.6186L28.7006 36.7757C29.6084 36.8101 30.2491 35.8952 29.9061 35.0546ZM20.5468 26.5626C21.7406 25.3478 21.8773 25.4525 23.5773 24.9892C24.6624 24.6931 25.5108 23.8298 25.8015 22.7252C26.3858 20.5065 26.2343 20.7744 27.8288 19.151C28.6233 18.3425 28.9335 17.1636 28.6428 16.0589C28.0592 13.8418 28.0585 14.1511 28.6428 11.9316C28.9335 10.827 28.6233 9.64809 27.8288 8.83952C26.2343 7.21611 26.3858 7.48329 25.8015 5.26537C25.5108 4.1607 24.6624 3.29744 23.5773 3.00135C21.3992 2.40683 21.6617 2.5623 20.0656 0.938111C19.2711 0.129534 18.1125 -0.186866 17.0273 0.109222C14.85 0.70296 15.1539 0.703741 12.9727 0.109222C11.8875 -0.186866 10.729 0.128752 9.93443 0.938111C8.33991 2.56152 8.60241 2.40683 6.42353 3.00135C5.33838 3.29744 4.48995 4.1607 4.19933 5.26537C3.61574 7.48329 3.76652 7.21611 2.17201 8.83952C1.37748 9.64809 1.06655 10.827 1.35795 11.9316C1.94154 14.1472 1.94232 13.8379 1.35795 16.0581C1.06733 17.1628 1.37748 18.3417 2.17201 19.151C3.76652 20.7744 3.61496 20.5065 4.19933 22.7252C4.48995 23.8298 5.33838 24.6931 6.42353 24.9892C8.17195 25.4657 8.30241 25.3907 9.45318 26.5626C10.4868 27.6149 12.0969 27.8032 13.3391 27.0173C13.8358 26.7019 14.412 26.5345 15.0004 26.5345C15.5888 26.5345 16.165 26.7019 16.6617 27.0173C17.9031 27.8032 19.5132 27.6149 20.5468 26.5626ZM7.62976 13.7472C7.62976 9.60435 10.9297 6.24582 15 6.24582C19.0703 6.24582 22.3702 9.60435 22.3702 13.7472C22.3702 17.8901 19.0703 21.2486 15 21.2486C10.9297 21.2486 7.62976 17.8901 7.62976 13.7472Z" fill="#A4A4A4"/>
</svg>
