<svg width="40" height="40" viewBox="0 0 40 40" fill="none" xmlns="http://www.w3.org/2000/svg">
<path d="M38.7693 15.8222L30.1756 14.6159L33.4428 6.46419C33.9639 5.16416 32.5366 3.95008 31.3655 4.69619L24.0186 9.37518L21.3554 1.00158C21.1437 0.3336 20.5718 0 19.9999 0C19.4281 0 18.8562 0.3336 18.6445 1.00158L15.9812 9.37597L8.63437 4.69697C7.46328 3.95086 6.03673 5.16494 6.55704 6.46497L9.8242 14.6167L1.23051 15.8222C-0.139797 16.0144 -0.463232 17.8746 0.759416 18.5308L8.42812 22.645L2.60941 29.1717C1.75629 30.1287 2.47503 31.5881 3.64768 31.5881C3.75002 31.5881 3.85627 31.5772 3.96565 31.553L12.4476 29.7053L12.1265 38.4984C12.0929 39.4086 12.8195 40 13.5648 40C13.9671 40 14.3765 39.8273 14.6742 39.4391L20.0007 32.4936L25.3272 39.4391C25.6249 39.8273 26.0335 40 26.4366 40C27.1819 40 27.9085 39.4086 27.8749 38.4984L27.5538 29.7053L36.0358 31.553C37.392 31.8467 38.3178 30.2092 37.3912 29.1709L31.5725 22.6442L39.2412 18.53C40.4631 17.8746 40.1396 16.0144 38.7693 15.8222ZM26.446 24.3505L22.3921 23.4676L22.546 27.6701L19.9999 24.3505L17.4538 27.6701L17.607 23.4676L13.5531 24.3505L16.3343 21.2309L12.6687 19.2644L16.7757 18.6879L15.214 14.7917L18.7257 17.0277L19.9999 13.0253L21.2726 17.0277L24.7843 14.7917L23.2226 18.6879L27.3296 19.2644L23.664 21.2309L26.446 24.3505Z" fill="#A4A4A4"/>
</svg>
