<svg width="37" height="37" viewBox="0 0 37 37" fill="none" xmlns="http://www.w3.org/2000/svg">
<path d="M18.0804 20.7869C23.6952 20.7869 28.2506 16.2315 28.2506 10.6167C28.2506 5.00194 23.6952 0.446533 18.0804 0.446533C12.4656 0.446533 7.91016 5.00194 7.91016 10.6167C7.91016 16.2315 12.4656 20.7869 18.0804 20.7869ZM27.1205 23.047H23.229C21.6611 23.7674 19.9166 24.177 18.0804 24.177C16.2441 24.177 14.5067 23.7674 12.9317 23.047H9.04018C4.04689 23.047 0 27.0939 0 32.0872V33.2172C0 35.0888 1.51847 36.6072 3.39007 36.6072H32.7706C34.6422 36.6072 36.1607 35.0888 36.1607 33.2172V32.0872C36.1607 27.0939 32.1138 23.047 27.1205 23.047Z" fill="#A4A4A4"/>
</svg>
