<svg width="30" height="35" viewBox="0 0 30 35" fill="none" xmlns="http://www.w3.org/2000/svg">
<path d="M30 24.6094V1.64062C30 0.731445 29.2835 0 28.3929 0H6.42857C2.87946 0 0 2.93945 0 6.5625V28.4375C0 32.0605 2.87946 35 6.42857 35H28.3929C29.2835 35 30 34.2686 30 33.3594V32.2656C30 31.7529 29.7656 31.2881 29.404 30.9873C29.1228 29.9346 29.1228 26.9336 29.404 25.8809C29.7656 25.5869 30 25.1221 30 24.6094ZM8.57143 9.16016C8.57143 8.93457 8.75223 8.75 8.97321 8.75H23.1696C23.3906 8.75 23.5714 8.93457 23.5714 9.16016V10.5273C23.5714 10.7529 23.3906 10.9375 23.1696 10.9375H8.97321C8.75223 10.9375 8.57143 10.7529 8.57143 10.5273V9.16016ZM8.57143 13.5352C8.57143 13.3096 8.75223 13.125 8.97321 13.125H23.1696C23.3906 13.125 23.5714 13.3096 23.5714 13.5352V14.9023C23.5714 15.1279 23.3906 15.3125 23.1696 15.3125H8.97321C8.75223 15.3125 8.57143 15.1279 8.57143 14.9023V13.5352ZM25.5402 30.625H6.42857C5.2433 30.625 4.28571 29.6475 4.28571 28.4375C4.28571 27.2344 5.25 26.25 6.42857 26.25H25.5402C25.4129 27.4189 25.4129 29.4561 25.5402 30.625Z" fill="#8978F4"/>
</svg>
