<svg width="367" height="316" viewBox="0 0 367 316" fill="none" xmlns="http://www.w3.org/2000/svg">
<g filter="url(#filter0_i_14_59)">
<path d="M176.435 254.181C256.078 254.181 320.642 250.343 320.642 245.609C320.642 240.876 256.078 237.038 176.435 237.038C96.7922 237.038 32.2288 240.876 32.2288 245.609C32.2288 250.343 96.7922 254.181 176.435 254.181Z" fill="#E5E5E5"/>
<path d="M182.882 286.927C279.408 286.927 357.657 278.141 357.657 267.302C357.657 256.464 279.408 247.678 182.882 247.678C86.3568 247.678 8.10742 256.464 8.10742 267.302C8.10742 278.141 86.3568 286.927 182.882 286.927Z" fill="#E5E5E5"/>
<path d="M310.666 190.548C310.666 190.548 324.795 189.657 324.612 204.275C324.446 217.307 313.348 218.014 310.941 218.014C310.647 218.014 310.482 218.005 310.482 218.005H202.768V213.404H310.299C310.299 213.404 317.906 212.07 318.189 204.796C318.556 195.297 309.565 195.297 309.565 195.297H202.768V190.548H310.666Z" fill="#3E89FC"/>
<path d="M324.017 243.848C324.219 243.848 324.385 243.99 324.385 244.164C324.385 244.337 324.219 244.48 324.017 244.48V243.848ZM324.017 247.112C324.219 247.112 324.385 247.254 324.385 247.428C324.385 247.602 324.219 247.744 324.017 247.744V247.112ZM324.017 250.8C324.219 250.8 324.385 250.942 324.385 251.116C324.385 251.289 324.219 251.432 324.017 251.432V250.8Z" fill="black"/>
<path d="M324.017 251.432V255.998H207.414C207.414 255.998 198.943 254.772 198.631 248.089C198.224 239.357 208.228 239.357 208.228 239.357H324.017V243.848H206.742C206.54 243.848 206.375 243.99 206.375 244.164C206.375 244.338 206.54 244.48 206.742 244.48H324.017V247.112H213.715C213.513 247.112 213.348 247.254 213.348 247.428C213.348 247.602 213.513 247.744 213.715 247.744H324.017V250.8H231.331C231.129 250.8 230.964 250.942 230.964 251.116C230.964 251.29 231.129 251.432 231.331 251.432H324.017Z" fill="#E5E5E5"/>
<path d="M324.017 251.116V251.432H231.331C231.129 251.432 230.964 251.289 230.964 251.116C230.964 250.942 231.129 250.8 231.331 250.8H324.017V251.116ZM324.017 247.428V247.744H213.715C213.513 247.744 213.348 247.602 213.348 247.428C213.348 247.254 213.513 247.112 213.715 247.112H324.017V247.428ZM324.017 244.48H206.742C206.54 244.48 206.375 244.337 206.375 244.164C206.375 243.99 206.54 243.848 206.742 243.848H324.017V244.48Z" fill="black"/>
<path d="M309.564 195.297C309.564 195.297 318.556 195.297 318.189 204.796C317.906 212.071 310.299 213.404 310.299 213.404H205.527V208.98H305.465C305.667 208.98 305.832 208.838 305.832 208.664C305.832 208.49 305.667 208.348 305.465 208.348H205.527V204.591H294.334C294.536 204.591 294.701 204.449 294.701 204.275C294.701 204.101 294.536 203.959 294.334 203.959H205.527V199.924H297.637C297.839 199.924 298.004 199.782 298.004 199.608C298.004 199.434 297.839 199.292 297.637 199.292H205.527V195.297H309.564Z" fill="#E5E5E5"/>
<path d="M312.133 218.015C312.133 218.015 315.436 226.613 312.133 234.627L279.287 234.791V218.015H312.133Z" fill="#A9D9FF"/>
<path d="M305.465 208.348C305.667 208.348 305.832 208.491 305.832 208.664C305.832 208.838 305.667 208.98 305.465 208.98H205.527V208.348H305.465ZM297.637 199.292C297.839 199.292 298.004 199.434 298.004 199.608C298.004 199.782 297.839 199.924 297.637 199.924H205.527V199.292H297.637ZM294.334 203.959C294.536 203.959 294.701 204.101 294.701 204.275C294.701 204.449 294.536 204.591 294.334 204.591H205.527V203.959H294.334Z" fill="black"/>
<path d="M279.287 218.015V234.791L238.425 234.993H225.951V218.015H279.287Z" fill="white"/>
<path d="M274.699 190.535V190.548H202.767V194.024H190.289V148.52H274.699V190.535ZM254.698 173.272V163.688H239.772V173.272H254.698ZM222.769 178.891V160.316H197.996V178.891H222.769Z" fill="#A9D9FF"/>
<path d="M239.772 163.688H254.698V173.272H239.772V163.688Z" fill="white"/>
<path d="M225.951 234.984V234.993H207.003C207.003 234.993 205.641 234.924 203.725 235.167L192.675 235.221C192.675 235.221 189.372 226.91 192.675 218.015H225.951V234.984Z" fill="#A9D9FF"/>
<path d="M197.996 160.316H222.769V178.891H197.996V160.316Z" fill="white"/>
<path d="M205.528 208.664V208.98C205.326 208.98 205.16 208.838 205.16 208.664C205.16 208.491 205.326 208.348 205.528 208.348V208.664ZM205.528 204.275V204.591C205.326 204.591 205.16 204.449 205.16 204.275C205.16 204.101 205.326 203.959 205.528 203.959V204.275ZM205.528 199.608V199.924C205.326 199.924 205.16 199.782 205.16 199.608C205.16 199.434 205.326 199.292 205.528 199.292V199.608Z" fill="black"/>
<path d="M198.631 248.088C198.943 254.772 207.414 255.998 207.414 255.998H327.089V260.226H207.208C207.208 260.226 191.688 261.044 191.482 247.611C191.339 238.128 199.131 235.745 203.725 235.167L238.425 234.993H327.089V239.357H208.228C208.228 239.357 198.224 239.357 198.631 248.088Z" fill="#295FC5"/>
<path d="M137.001 132.088V172.432H62.023V132.088H137.001ZM122.93 151.364V142.639H105.083V151.364H122.93ZM92.851 155.576V147.152H85.2651V140.936H69.8511V148.52H77.5581V155.576H92.851Z" fill="#E5E5E5"/>
<path d="M105.083 142.639H122.93V151.364H105.083V142.639Z" fill="white"/>
<path d="M99.5121 223.2L96.2751 244.164H62.023L58.8411 223.2H66.027C66.0674 223.276 66.0894 223.32 66.0894 223.324C66.1219 223.391 66.1807 223.447 66.2558 223.481C66.3308 223.516 66.4174 223.526 66.5007 223.512C66.584 223.497 66.6588 223.458 66.7123 223.401C66.7658 223.345 66.7947 223.273 66.794 223.2H77.1911V223.21C77.1948 223.38 77.3599 223.516 77.5581 223.516H77.5691C77.7673 223.513 77.9215 223.374 77.9251 223.2H86.3661V223.203C86.3671 223.287 86.4062 223.366 86.4749 223.425C86.5436 223.483 86.6364 223.516 86.7331 223.516H86.7368C86.9386 223.513 87.1038 223.371 87.1001 223.2H99.5121ZM92.851 147.152V155.576H77.5581V148.52H85.2651V147.152H92.851Z" fill="#A9D9FF"/>
<path d="M91.3206 209.492C91.2766 209.562 91.2325 209.628 91.1885 209.697C91.1188 209.584 91.0564 209.467 90.9977 209.34C90.961 209.258 90.9279 209.173 90.8949 209.087L90.7775 209.081C90.7775 209.065 90.7811 209.049 90.7811 209.03C93.6144 204.682 97.633 201.415 102.723 199.323C102.767 199.305 102.814 199.294 102.862 199.292C102.91 199.29 102.958 199.296 103.003 199.31C103.049 199.323 103.09 199.345 103.126 199.373C103.162 199.4 103.191 199.434 103.211 199.471C103.3 199.629 103.222 199.816 103.039 199.892C98.0257 201.952 94.0841 205.185 91.3206 209.492Z" fill="black"/>
<path d="M90.7811 209.031C90.8398 207.76 89.9223 206.272 89.7902 204.983C89.5957 203.093 89.6691 200.549 90.4912 198.786C91.9372 195.689 95.732 192.899 99.6956 192.864C100.951 192.855 102.536 193.114 103.74 192.871C105.703 192.472 105.935 190.953 106.452 189.622C107.678 186.456 113.656 186.412 115.612 188.994C116.981 190.801 117.693 193.288 117.047 195.421C116.467 197.336 114.251 200.18 112.335 201.292C109.858 202.73 106.632 202.123 104.254 203.814C103.167 204.585 102.521 206.216 102.756 207.423C103.039 208.851 104.334 209.865 104.474 211.401C104.76 214.634 100.294 214.931 97.4715 214.324C95.7943 213.964 94.9025 212.988 93.7098 212.033C92.6748 211.205 91.7537 210.636 91.1885 209.698C91.2325 209.628 91.2766 209.562 91.3206 209.493C94.0841 205.185 98.0257 201.953 103.039 199.892C103.222 199.817 103.299 199.63 103.211 199.472C103.191 199.435 103.162 199.401 103.126 199.373C103.09 199.346 103.049 199.324 103.003 199.31C102.958 199.296 102.91 199.29 102.862 199.293C102.814 199.295 102.767 199.305 102.723 199.323C97.633 201.415 93.6144 204.683 90.7811 209.031Z" fill="#A9D9FF"/>
<path d="M86.3661 223.2C86.3661 223.074 86.3294 215.961 90.6747 209.189C90.7077 209.135 90.7444 209.081 90.7811 209.031C90.7811 209.05 90.7774 209.065 90.7774 209.081L90.8949 209.088C90.9279 209.173 90.9609 209.258 90.9976 209.34C91.0564 209.467 91.1187 209.584 91.1885 209.698C87.0524 216.286 87.1001 223.128 87.1001 223.197V223.201L86.3661 223.2Z" fill="black"/>
<path d="M86.7331 223.2H87.1001C87.1038 223.37 86.9386 223.512 86.7368 223.515H86.7331C86.6364 223.515 86.5436 223.483 86.4749 223.424C86.4061 223.366 86.3671 223.286 86.3661 223.203V223.2H86.7331Z" fill="black"/>
<path d="M84.7807 200.426C87.1772 201.921 87.4634 204.923 85.911 207.084C84.1971 209.47 79.9253 212.412 76.4314 211.534C76.4277 211.502 76.4204 211.47 76.4131 211.439C74.6441 202.78 70.7429 191.369 62.2359 186.181C62.0707 186.083 61.8395 186.114 61.7221 186.256C61.6046 186.399 61.645 186.598 61.8101 186.699C70.0897 191.745 73.9211 202.938 75.6791 211.47C71.2861 211.23 66.5958 210.238 62.5111 208.955C59.9054 208.136 56.6134 206.322 56.8813 203.586C57.0318 202.05 58.3603 201.086 59.6999 200.239C60.7312 199.585 61.8285 198.849 61.4138 197.579C60.9917 196.286 59.1531 196.185 57.8575 195.711C56.0189 195.038 54.1252 194.194 52.8737 192.842C49.6624 189.363 50.0882 185.028 54.316 182.411C58.0484 180.104 62.5735 179.797 66.794 181.166C70.6769 182.43 75.613 185.381 75.602 189.202C75.5947 192.103 74.134 194.362 76.9746 196.656C79.2537 198.495 82.2997 198.878 84.7807 200.426Z" fill="#3E89FC"/>
<path d="M85.2651 147.152V148.52H69.8511V140.936H85.2651V147.152Z" fill="white"/>
<path d="M77.5581 223.2H77.9251C77.9214 223.374 77.7673 223.513 77.5691 223.516H77.5581C77.3599 223.516 77.1948 223.38 77.1911 223.21V223.2H77.5581ZM77.1911 223.2C77.1838 222.941 76.9893 217.879 75.6938 211.546C75.6901 211.521 75.6827 211.496 75.6791 211.47C75.8039 211.48 75.9286 211.486 76.0534 211.492C76.1488 211.502 76.2406 211.505 76.336 211.508C76.369 211.518 76.3984 211.524 76.4314 211.534C77.7526 218.005 77.9251 223.14 77.9251 223.191V223.2H77.1911ZM66.427 223.2H66.794C66.7941 223.242 66.7847 223.283 66.7663 223.321C66.7479 223.36 66.7208 223.395 66.6867 223.424C66.6526 223.453 66.6121 223.477 66.5676 223.492C66.523 223.508 66.4752 223.516 66.427 223.516C66.2839 223.516 66.1481 223.444 66.0894 223.323C66.0894 223.32 66.0673 223.276 66.027 223.2H66.427Z" fill="black"/>
<path d="M61.8102 186.699C61.645 186.598 61.6046 186.399 61.7221 186.257C61.8395 186.115 62.0707 186.083 62.2359 186.181C70.7429 191.37 74.6441 202.78 76.4131 211.439C76.4204 211.471 76.4278 211.502 76.4314 211.534C76.3984 211.524 76.369 211.518 76.336 211.509C76.2406 211.505 76.1488 211.502 76.0534 211.493C75.9286 211.486 75.8039 211.48 75.6791 211.471C73.9212 202.938 70.0897 191.746 61.8102 186.699ZM59.9458 216.463C60.0229 216.384 60.0926 216.296 60.155 216.204C60.1587 216.208 60.166 216.211 60.1697 216.214L60.2431 216.261C60.3055 216.305 60.3715 216.346 60.4339 216.394C64.9884 219.494 66.6949 222.935 66.7647 223.077C66.7867 223.118 66.794 223.159 66.794 223.2H66.027C65.6783 222.568 63.9057 219.563 59.9678 216.88C59.9495 216.868 59.9348 216.855 59.9201 216.849C59.9678 216.823 60.0155 216.798 60.0669 216.776L60.1954 216.634C60.1146 216.574 60.0302 216.52 59.9458 216.463Z" fill="black"/>
<path d="M59.7183 216.713L59.7916 216.76C59.832 216.789 59.8724 216.814 59.9201 216.849C58.5842 217.496 57.7842 218.012 56.151 218.328C54.0995 218.726 52.0113 218.757 49.9083 218.776C46.4769 218.808 43.629 217.936 40.737 216.482C38.0763 215.145 35.4082 212.968 34.8944 210.149C34.3072 206.942 37.8854 203.21 41.9408 204.022C43.0748 204.25 43.2987 205.299 43.8271 206.032C44.429 206.869 44.9905 207.09 46.1503 207.191C49.1743 207.45 51.7947 205.444 54.9289 206.449C57.6887 207.33 59.766 209.684 60.3421 212.121C60.6064 213.236 60.9 215.11 60.155 216.204C56.8116 213.992 52.848 212.557 48.3816 211.934C48.1798 211.906 47.9926 212.026 47.9596 212.196C47.9265 212.37 48.066 212.532 48.2642 212.56C52.6168 213.164 56.474 214.561 59.7183 216.713Z" fill="#295FC5"/>
<path d="M59.7916 216.76L59.7182 216.713C56.474 214.561 52.6168 213.164 48.2642 212.561C48.066 212.532 47.9265 212.371 47.9596 212.197C47.9926 212.026 48.1798 211.906 48.3816 211.935C52.848 212.558 56.8116 213.992 60.155 216.204C60.0926 216.296 60.0229 216.384 59.9458 216.463C60.0302 216.52 60.1146 216.574 60.1953 216.634L60.0669 216.776C60.0155 216.798 59.9678 216.823 59.9201 216.849C59.8724 216.814 59.832 216.789 59.7916 216.76Z" fill="black"/>
<path d="M284.693 90.0599L283.225 95.7479L258.269 90.0599H284.693ZM271.58 60.0399L258.184 66.0439L266.809 57.5846L271.58 60.0399ZM259.285 121.552L255.615 124.978L245.523 109.889L259.285 121.552ZM249.927 37.7619L235.43 52.7719L242.403 35.2339L249.927 37.7619Z" fill="#E22953"/>
<path d="M211.131 107.829V107.867C211.131 108.04 211.297 108.179 211.498 108.179C211.686 108.179 211.843 108.056 211.862 107.898C213.796 108.091 215.586 108.309 217.235 108.546C217.231 108.565 217.227 108.581 217.227 108.6C217.227 108.773 217.392 108.916 217.594 108.916C217.774 108.916 217.924 108.802 217.954 108.653V108.65C223.804 109.522 227.756 110.568 229.822 111.2C230.964 111.551 231.533 111.775 231.533 111.775L229.235 116.367C228.846 116.269 228.457 116.171 228.068 116.079C214.588 112.84 202.051 112.742 197.989 112.812C197.104 112.828 196.62 112.85 196.62 112.85L196.205 107.162C197.079 107.162 197.934 107.168 198.771 107.181C203.38 107.247 207.498 107.491 211.131 107.829Z" fill="#A9D9FF"/>
<path d="M222.56 86.7514C223.133 85.4116 223.672 84.4256 224.171 83.8189C224.935 82.8867 226.326 82.3306 227.896 82.3306C229.265 82.3306 230.399 82.7635 230.59 83.367C230.777 83.9516 230.043 84.7195 228.575 85.4684C226.96 86.2932 224.938 86.7261 222.56 86.7514Z" fill="#FFC962"/>
<path d="M224.171 83.8191C223.672 84.4258 223.132 85.4118 222.559 86.7516C224.938 86.7263 226.96 86.2934 228.575 85.4686C230.043 84.7197 230.777 83.9518 230.589 83.3672C230.399 82.7637 229.265 82.3308 227.896 82.3308C226.325 82.3308 224.934 82.8869 224.171 83.8191ZM222.16 86.7706C222.714 85.456 223.294 84.3405 223.87 83.6358C226.564 80.3431 234.942 82.5804 228.762 85.7404C226.934 86.6726 224.717 87.0613 222.406 87.0708C222.406 87.0265 222.398 86.9823 222.376 86.9444C222.367 86.9255 222.356 86.9075 222.343 86.8906C222.331 86.8727 222.314 86.8567 222.296 86.8432C222.28 86.8299 222.263 86.8183 222.244 86.8085C222.23 86.799 222.216 86.7905 222.2 86.7832C222.185 86.78 222.174 86.7737 222.16 86.7706ZM222.373 87.1972C222.347 87.2604 222.321 87.3236 222.299 87.3868C222.212 87.3868 222.127 87.3836 222.039 87.3836C222.189 87.3836 222.318 87.3078 222.373 87.1972Z" fill="black"/>
<path d="M222.343 86.8906C222.358 86.9098 222.369 86.9291 222.377 86.9451C222.369 86.9254 222.358 86.907 222.343 86.8906Z" fill="black"/>
<path d="M222.344 86.8902C222.359 86.906 222.37 86.9249 222.377 86.9438C222.4 86.9816 222.407 87.0257 222.407 87.0698C222.285 87.0698 222.16 87.0698 222.039 87.0666C222.079 86.9658 222.12 86.8682 222.16 86.7705C222.175 86.7737 222.186 86.78 222.201 86.7831C222.215 86.7894 222.234 86.7989 222.245 86.8083C222.263 86.8178 222.282 86.8304 222.296 86.843C222.315 86.8556 222.333 86.8745 222.344 86.8902Z" fill="black"/>
<path d="M221.785 86.7453C222.417 85.2253 223 84.1477 223.569 83.4525C224.468 82.3528 226.086 81.6987 227.896 81.6987C229.647 81.6987 231.011 82.2991 231.298 83.1997C231.5 83.8317 231.254 84.8334 228.949 86.0121C227.166 86.9222 224.935 87.3867 222.321 87.3867H222.299C222.321 87.3235 222.347 87.2603 222.372 87.1971C222.395 87.1592 222.405 87.115 222.405 87.0707C224.717 87.0613 226.934 86.6726 228.762 85.7404C234.942 82.5804 226.563 80.3431 223.87 83.6358C223.293 84.3405 222.714 85.456 222.159 86.7705C222.132 86.7601 222.102 86.7547 222.071 86.7547C222.068 86.7516 222.064 86.7516 222.061 86.7516H222.035C221.951 86.7516 221.87 86.7484 221.785 86.7453Z" fill="black"/>
<path d="M222.321 87.3867C224.934 87.3867 227.166 86.9222 228.949 86.0121C231.254 84.8334 231.5 83.8317 231.298 83.1997C231.012 82.2991 229.647 81.6987 227.896 81.6987C226.086 81.6987 224.468 82.3528 223.569 83.4525C223 84.1477 222.416 85.2252 221.785 86.7452C219.073 86.6757 215.979 86.0848 213.22 85.0957C213.117 82.5993 212.948 81.0888 212.717 80.4789C212.335 79.493 211.182 78.8515 209.781 78.8515C208.79 78.8515 207.894 79.1928 207.381 79.7584C207.047 80.1282 206.709 80.776 206.999 81.7556C207.348 82.9279 209.447 84.3657 212.504 85.5191C212.683 90.177 212.61 96.6139 212.588 98.1749L211.542 98.0675C211.491 98.0619 211.439 98.0658 211.39 98.0789C211.34 98.092 211.295 98.1139 211.256 98.1433C211.216 98.1727 211.185 98.2091 211.163 98.25C211.142 98.2909 211.131 98.3354 211.131 98.3803V104.653C205.618 103.338 200.76 100.943 196.972 97.8084C191.46 93.2422 188.223 87.1149 188.553 80.4916C189.221 67.2006 204.022 56.959 221.617 57.6132C239.207 58.2673 252.929 69.5738 252.261 82.8616C251.798 92.0666 244.558 99.8086 234.303 103.481C229.753 105.114 224.607 105.942 219.202 105.74C219.018 105.734 218.835 105.724 218.651 105.715L220.182 99.2872C220.204 99.2019 220.178 99.1103 220.119 99.0376C220.09 99.0025 220.052 98.9731 220.008 98.9514C219.965 98.9296 219.916 98.9159 219.866 98.9112L218.923 98.8164C219.257 97.3754 220.644 91.5358 222.299 87.3867H222.321Z" fill="#FFC962"/>
<path d="M222.244 86.8083C222.231 86.7981 222.216 86.7896 222.2 86.7831C222.215 86.7894 222.229 86.7989 222.244 86.8083ZM222.039 87.0675C222.16 87.0706 222.285 87.0706 222.406 87.0706C222.406 87.1149 222.395 87.1591 222.373 87.197C222.318 87.3076 222.189 87.3835 222.039 87.3835H222.035C221.995 87.3835 221.958 87.3771 221.921 87.3645C221.958 87.2634 221.998 87.1654 222.039 87.0675Z" fill="black"/>
<path d="M222.035 86.7515H222.061C222.065 86.7515 222.068 86.7515 222.072 86.7546C222.102 86.7546 222.132 86.76 222.16 86.7704C222.12 86.868 222.079 86.9657 222.039 87.0665C221.918 87.0665 221.796 87.0633 221.672 87.057C221.672 87.0255 221.679 86.994 221.694 86.9625L221.716 86.9153C221.782 86.8145 221.907 86.7515 222.035 86.7515Z" fill="black"/>
<path d="M222.035 86.7514C221.907 86.7514 221.782 86.8146 221.716 86.9158C221.738 86.8589 221.76 86.7988 221.785 86.7451C221.87 86.7483 221.951 86.7514 222.035 86.7514ZM222.035 87.3834C221.995 87.3834 221.954 87.3834 221.914 87.3803C221.918 87.374 221.918 87.3676 221.922 87.3645C221.958 87.3771 221.995 87.3834 222.035 87.3834ZM222.039 87.0674C221.999 87.1654 221.958 87.2634 221.922 87.3645C221.846 87.3451 221.782 87.3037 221.738 87.2476C221.692 87.1927 221.668 87.1258 221.672 87.058C221.796 87.0643 221.918 87.0674 222.039 87.0674ZM221.694 86.9632C221.679 86.9948 221.671 87.0264 221.671 87.058H221.657C221.668 87.0264 221.683 86.9948 221.694 86.9632Z" fill="black"/>
<path d="M221.738 87.2477C221.781 87.3046 221.848 87.3457 221.921 87.3646C221.917 87.3678 221.917 87.3741 221.914 87.3804C221.789 87.3804 221.661 87.3773 221.532 87.3709C221.572 87.2635 221.613 87.1592 221.657 87.0581H221.671C221.668 87.126 221.691 87.1928 221.738 87.2477Z" fill="black"/>
<path d="M221.532 87.3708C219.873 91.5894 218.501 97.3975 218.193 98.7405L213.322 98.2475C213.34 96.835 213.417 90.5023 213.249 85.7908C215.961 86.7261 218.86 87.2791 221.532 87.3708ZM218.651 105.715C218.835 105.724 219.018 105.734 219.202 105.74C224.607 105.942 229.753 105.114 234.303 103.48V103.484L229.822 111.2C227.756 110.568 223.804 109.522 217.954 108.65L218.651 105.715Z" fill="#FFC962"/>
<path d="M220.182 99.2873L218.651 105.715L218.284 105.696L219.822 99.224L218.857 99.1261C218.865 99.0818 218.89 98.9776 218.923 98.8164L219.866 98.9112C219.969 98.9207 220.061 98.9681 220.119 99.0376C220.178 99.1103 220.204 99.2019 220.182 99.2873Z" fill="black"/>
<path d="M219.382 99.4989L217.914 105.67C215.873 105.537 213.849 105.252 211.866 104.817V98.7373L212.875 98.8384L218.49 99.4072L219.382 99.4989Z" fill="#FFC962"/>
<path d="M219.191 134.379C220.383 134.537 220.108 136.986 216.438 139.751C212.768 142.516 206.261 143.47 203.733 144.336C202.195 143.259 200.041 141.935 198.775 141.17C198.775 141.17 202.676 132.088 203.777 132.957C204.878 133.826 204.694 137.539 204.694 137.539C204.694 137.539 217.998 134.221 219.191 134.379Z" fill="#FDA181"/>
<path d="M222.299 87.3867C220.644 91.5358 219.257 97.3755 218.923 98.8164L218.56 98.7785C218.879 97.3881 220.251 91.5863 221.914 87.3804C221.955 87.3835 221.995 87.3835 222.035 87.3835H222.039C222.127 87.3835 222.211 87.3867 222.299 87.3867ZM217.914 105.67L219.382 99.499L218.49 99.4073V99.4042C218.662 99.4042 218.817 99.2999 218.849 99.1482C218.849 99.1451 218.853 99.1387 218.857 99.1261L219.822 99.2241L218.285 105.696C218.159 105.689 218.035 105.68 217.914 105.67ZM218.651 105.715L217.954 108.65C217.837 108.631 217.716 108.616 217.595 108.597L218.285 105.696L218.651 105.715Z" fill="black"/>
<path d="M218.193 98.7405C218.501 97.3975 219.873 91.5894 221.532 87.3708C221.661 87.3772 221.789 87.3803 221.914 87.3803C220.251 91.5863 218.879 97.3881 218.56 98.7785L218.193 98.7405ZM218.923 98.8164C218.89 98.9775 218.864 99.0818 218.857 99.1261L218.49 99.0881C218.49 99.0881 218.515 98.9807 218.56 98.7785L218.923 98.8164Z" fill="black"/>
<path d="M218.13 99.028C218.13 99.0186 218.152 98.9206 218.193 98.7405L218.56 98.7784C218.516 98.9806 218.49 99.0881 218.49 99.0881L218.126 99.0502C218.126 99.0438 218.13 99.0344 218.13 99.028Z" fill="black"/>
<path d="M218.42 99.3978C218.329 99.3833 218.247 99.3392 218.192 99.2745C218.138 99.2098 218.114 99.1295 218.126 99.0502L218.489 99.0881L218.856 99.126C218.853 99.1387 218.849 99.145 218.849 99.1482C218.833 99.2202 218.788 99.2852 218.723 99.332C218.657 99.3787 218.575 99.4042 218.489 99.4041C218.468 99.4041 218.446 99.401 218.42 99.3978ZM217.914 105.67C218.035 105.68 218.16 105.689 218.285 105.696L217.595 108.597C217.477 108.581 217.356 108.562 217.235 108.546V108.533L217.914 105.67ZM213.322 98.2476L218.193 98.7405C218.152 98.9206 218.13 99.0186 218.13 99.0281C218.13 99.0344 218.126 99.0439 218.126 99.0502L213.315 98.5667C213.319 98.5572 213.319 98.5446 213.319 98.532C213.319 98.5225 213.319 98.4245 213.322 98.2476Z" fill="black"/>
<path d="M211.865 104.817C213.811 105.244 215.833 105.534 217.913 105.67L217.234 108.533V108.546C215.586 108.309 213.795 108.091 211.861 107.898C211.865 107.889 211.865 107.876 211.865 107.863L211.865 104.817Z" fill="#FFC962"/>
<path d="M217.594 108.597C217.715 108.616 217.836 108.631 217.954 108.65V108.653C217.924 108.802 217.774 108.916 217.594 108.916C217.392 108.916 217.227 108.774 217.227 108.6C217.227 108.581 217.231 108.565 217.235 108.546C217.356 108.562 217.477 108.581 217.594 108.597ZM213.22 85.0957C215.98 86.0848 219.073 86.6757 221.785 86.7452C221.76 86.7989 221.738 86.859 221.716 86.9159L221.694 86.9633C221.683 86.9949 221.668 87.0265 221.657 87.0581C218.746 86.9727 215.737 86.3218 213.238 85.4433C213.234 85.3991 213.234 85.3548 213.23 85.3106V85.3011L213.22 85.0957Z" fill="black"/>
<path d="M213.238 85.4434C215.737 86.3218 218.747 86.9728 221.657 87.0581C221.613 87.1592 221.573 87.2635 221.532 87.371C218.86 87.2793 215.961 86.7263 213.249 85.791L213.238 85.4434ZM213.319 98.5321C213.319 98.5447 213.319 98.5574 213.315 98.5668L212.952 98.5289C212.952 98.5289 212.955 98.4152 212.955 98.2098L213.322 98.2477C213.319 98.4246 213.319 98.5226 213.319 98.5321Z" fill="black"/>
<path d="M212.955 98.2097C212.978 96.7245 213.055 90.3698 212.878 85.6582C213.003 85.7024 213.128 85.7467 213.249 85.7909C213.418 90.5025 213.341 96.8351 213.322 98.2476L212.955 98.2097Z" fill="black"/>
<path d="M213.249 85.7909C213.128 85.7467 213.003 85.7024 212.878 85.6582C212.878 85.6455 212.875 85.6361 212.875 85.6266C212.944 85.6234 213.014 85.6045 213.073 85.5697C213.132 85.5349 213.176 85.4875 213.201 85.4307C213.212 85.437 213.224 85.4401 213.238 85.4433L213.249 85.7909Z" fill="black"/>
<path d="M213.201 85.4306C213.22 85.3926 213.231 85.3516 213.231 85.3105C213.234 85.3547 213.234 85.399 213.238 85.4432C213.225 85.441 213.213 85.4367 213.201 85.4306ZM213.22 85.0956L213.23 85.301C213.227 85.1714 213.12 85.064 212.992 85.0166C212.996 85.0166 213.003 85.0166 213.007 85.0198C213.077 85.045 213.15 85.0703 213.22 85.0956ZM212.864 85.3105C212.974 85.3516 213.088 85.3926 213.201 85.4306C213.176 85.4874 213.132 85.5348 213.073 85.5696C213.014 85.6044 212.944 85.6233 212.875 85.6265L212.864 85.3105ZM212.955 98.2096C212.955 98.415 212.952 98.5288 212.952 98.5288L212.585 98.4908C212.585 98.4403 212.588 98.3328 212.588 98.1748L212.955 98.2096ZM218.49 99.4072L212.875 98.8384C212.897 98.8416 212.922 98.8448 212.948 98.8448H212.952C213.139 98.8448 213.293 98.7247 213.315 98.5667L218.126 99.0502C218.101 99.2145 218.229 99.3662 218.42 99.3978C218.445 99.4009 218.468 99.4041 218.489 99.4041V99.4072H218.49ZM212.588 98.1748C212.611 96.6138 212.684 90.1769 212.504 85.519C212.574 85.5475 212.648 85.5728 212.721 85.6012C212.772 85.6202 212.827 85.6391 212.879 85.6581C213.055 90.3696 212.978 96.7244 212.955 98.2096L212.588 98.1748Z" fill="black"/>
<path d="M212.849 84.9945C212.897 84.9913 212.948 85.0008 212.993 85.0166C213.121 85.064 213.227 85.1715 213.231 85.301V85.3105C213.231 85.3516 213.22 85.3927 213.201 85.4306C213.088 85.3927 212.974 85.3516 212.864 85.3105C212.86 85.2031 212.856 85.0988 212.849 84.9945ZM212.878 85.6581C212.827 85.6391 212.772 85.6202 212.721 85.6012C212.765 85.617 212.816 85.6265 212.864 85.6265H212.875C212.875 85.636 212.878 85.6455 212.878 85.6581Z" fill="black"/>
<path d="M212.865 85.3096C212.75 85.2687 212.64 85.2246 212.526 85.1836C212.554 85.1292 212.599 85.0826 212.656 85.0492C212.713 85.0157 212.781 84.9968 212.85 84.9946C212.857 85.0986 212.861 85.2025 212.865 85.3096Z" fill="black"/>
<path d="M212.776 85.0039C212.753 85.0074 212.73 85.0138 212.71 85.0229C212.732 85.0165 212.754 85.0071 212.776 85.0039ZM212.721 85.6012C212.656 85.5784 212.601 85.54 212.561 85.4906C212.521 85.4413 212.499 85.3831 212.497 85.3231C212.497 85.2978 212.497 85.2725 212.504 85.2472C212.508 85.2251 212.515 85.2061 212.526 85.1872V85.184C212.641 85.2251 212.75 85.2693 212.864 85.3104C212.868 85.4147 212.872 85.519 212.875 85.6264H212.864C212.816 85.6264 212.765 85.617 212.721 85.6012ZM212.585 98.4908L212.952 98.5287L213.315 98.5666C213.293 98.7246 213.139 98.8447 212.952 98.8447H212.948C212.9 98.8444 212.852 98.8359 212.808 98.8196C212.763 98.8034 212.723 98.7798 212.689 98.7501C212.656 98.7205 212.629 98.6854 212.611 98.6468C212.593 98.6083 212.584 98.5671 212.585 98.5255V98.4908Z" fill="black"/>
<path d="M212.497 85.3232C212.5 85.4429 212.585 85.55 212.721 85.6004C212.648 85.5721 212.574 85.5469 212.504 85.5185C212.5 85.4524 212.5 85.3862 212.497 85.3232Z" fill="black"/>
<path d="M212.475 84.8175C209.869 83.7873 207.983 82.5233 207.711 81.5974C207.538 81.0097 207.623 80.523 207.961 80.147C208.335 79.733 209.018 79.4834 209.781 79.4834C210.599 79.4834 211.679 79.7962 212.02 80.6779C212.159 81.0413 212.346 82.0588 212.475 84.8175Z" fill="#FFC962"/>
<path d="M211.498 98.3804L212.585 98.491V98.5257C212.581 98.6774 212.706 98.807 212.875 98.8386L211.865 98.7375V104.817C211.741 104.792 211.62 104.767 211.498 104.738V98.3804Z" fill="black"/>
<path d="M211.498 107.863V104.738C211.62 104.767 211.741 104.792 211.865 104.817V107.863C211.865 107.876 211.865 107.889 211.862 107.898C211.741 107.885 211.62 107.876 211.498 107.863ZM211.542 98.0674L212.588 98.1748C212.588 98.3328 212.585 98.4402 212.585 98.4908L211.498 98.3802V104.738L211.131 104.653V98.3802C211.131 98.2886 211.175 98.2032 211.256 98.1432C211.333 98.0832 211.436 98.0579 211.542 98.0674Z" fill="black"/>
<path d="M211.499 104.738V107.863C211.378 107.851 211.253 107.841 211.131 107.829V104.653L211.499 104.738Z" fill="black"/>
<path d="M211.498 107.863C211.62 107.876 211.741 107.885 211.862 107.898C211.843 108.056 211.686 108.179 211.498 108.179C211.297 108.179 211.131 108.04 211.131 107.867V107.829C211.253 107.841 211.377 107.851 211.498 107.863Z" fill="black"/>
<path d="M211.131 104.653V107.829C207.498 107.491 203.38 107.247 198.771 107.181L196.973 97.8083C200.76 100.943 205.619 103.338 211.131 104.653Z" fill="#FFC962"/>
<path d="M210.107 33.6541L209.3 48.0321L205.527 33.6541H210.107Z" fill="#E22953"/>
<path d="M200.136 117.9C203.758 117.985 214.086 118.418 224.681 120.639L224.604 120.917L223.687 124.978C209.3 122.608 200.199 122.292 200.199 122.292L200.129 118.13L200.136 117.9Z" fill="#295FC5"/>
<path d="M212.02 80.6779C211.678 79.7963 210.599 79.4834 209.781 79.4834C209.018 79.4834 208.335 79.7331 207.961 80.147C207.623 80.5231 207.539 81.0097 207.711 81.5975C207.982 82.5234 209.869 83.7874 212.474 84.8175C212.346 82.0588 212.159 81.0413 212.02 80.6779ZM207.355 81.6765C206.5 78.7724 211.513 78.368 212.368 80.58C212.606 81.1993 212.757 82.8868 212.849 84.9945C212.824 84.9945 212.801 84.9976 212.776 85.004C212.754 85.0071 212.732 85.0166 212.71 85.0229C212.627 85.0554 212.562 85.1127 212.526 85.1841C209.715 84.1034 207.674 82.7572 207.355 81.6765Z" fill="black"/>
<path d="M212.368 80.5801C211.513 78.3681 206.5 78.7726 207.355 81.6766C207.674 82.7573 209.715 84.1035 212.526 85.1842V85.1874C212.515 85.2063 212.508 85.2284 212.504 85.2474C212.496 85.2727 212.496 85.298 212.496 85.3232C212.5 85.3864 212.5 85.4528 212.504 85.5192C209.447 84.3658 207.348 82.928 206.999 81.7556C206.709 80.776 207.047 80.1282 207.381 79.7585C207.894 79.1928 208.79 78.8516 209.781 78.8516C211.182 78.8516 212.335 79.493 212.717 80.479C212.948 81.0888 213.117 82.5993 213.22 85.0957C213.15 85.0704 213.076 85.0452 213.007 85.0199C213.003 85.0167 212.996 85.0167 212.992 85.0167C212.947 85 212.898 84.9924 212.849 84.9946C212.757 82.8869 212.607 81.1994 212.368 80.5801Z" fill="black"/>
<path d="M198.775 141.17C200.041 141.935 202.195 143.259 203.733 144.336C204.658 144.984 205.362 145.54 205.52 145.834C205.641 146.062 204.514 146.965 202.65 148.242C199.887 145.802 193.835 142.639 193.835 142.639C196.125 141.41 197.721 140.541 197.721 140.541C197.721 140.541 198.136 140.784 198.775 141.17Z" fill="#A9D9FF"/>
<path d="M227.907 116.604L225.98 120.917C225.547 120.819 225.114 120.728 224.681 120.639C214.086 118.418 203.758 117.985 200.136 117.9C199.259 117.881 198.775 117.881 198.775 117.881L197.996 113.207L197.989 112.812C202.051 112.742 214.588 112.84 228.068 116.079L227.907 116.604Z" fill="#3E89FC"/>
<path d="M186.293 47.1282L189.556 60.0399L180.16 48.5502L186.293 47.1282ZM184.418 100.962L171.022 109.889L168.453 105.771L184.418 100.962ZM177.628 81.6765L156.639 79.1674L158.177 73.4699L177.628 81.6765Z" fill="#E22953"/>
<path d="M177.995 162.266C174.876 162.819 165.242 157.21 165.242 157.21L164.959 157.134C165.209 156.42 165.385 155.801 165.425 155.393C165.517 154.467 164.394 151.794 163.271 149.395C166.857 154.006 172.703 160.351 178.766 162.026C178.439 162.152 178.179 162.234 177.995 162.266Z" fill="#295FC5"/>
<path d="M157.557 273.116C162.265 274.256 166.497 273.492 168.075 273.119L168.27 274.683C168.27 274.683 179.004 276.579 181.115 277.217C183.225 277.856 182.858 281.319 182.858 281.319L156.893 279.976L157.557 273.116Z" fill="#1E1950"/>
<path d="M154.705 191.189V191.186C156.309 190.981 157.905 190.719 159.461 190.39C172.949 187.546 173.499 186.44 173.499 186.44C173.499 186.44 173.837 219.882 170.534 237.736C170.534 237.736 170.013 269.943 168.728 272.945C168.728 272.945 168.497 273.017 168.075 273.118C166.497 273.492 162.265 274.256 157.557 273.115C157.337 273.065 157.116 273.008 156.892 272.945C156.892 272.945 157.014 243.004 157.564 238.896C158.115 234.788 151.538 202.635 151.538 202.635L151.31 202.584C153.285 195.971 154.705 191.189 154.705 191.189Z" fill="#403882"/>
<path d="M153.589 127.743C153.589 127.743 163.66 129.32 157.92 136.411C155.968 136.499 153.101 136.714 150.932 136.888C149.189 137.03 147.901 137.144 147.901 137.144L146.899 133.747L146.341 131.851C146.341 131.851 153.314 129.165 153.589 127.743Z" fill="#1E1950"/>
<path d="M153.01 143.044V144.728L146.782 141.334L153.01 143.044Z" fill="#295FC5"/>
<path d="M150.932 136.888L153.01 143.044L146.782 141.334L145.332 140.936L147.901 137.144C147.901 137.144 149.189 137.03 150.932 136.888Z" fill="#A9D9FF"/>
<path d="M144.224 120.911C144.561 120.848 144.723 120.345 144.58 119.792C144.44 119.236 144.051 118.838 143.713 118.901C143.376 118.964 143.214 119.467 143.354 120.02C143.497 120.576 143.886 120.974 144.224 120.911ZM147.974 119.009C148.118 119.565 148.507 119.963 148.844 119.9C149.182 119.837 149.343 119.334 149.2 118.778C149.061 118.225 148.672 117.824 148.334 117.89C147.996 117.953 147.835 118.453 147.974 119.009ZM147.233 120.924C147.277 121.082 148.103 123.979 148.818 124.978L150.408 123.24C149.046 122.728 147.339 121.028 147.233 120.924ZM133.037 124.741C133.221 122.055 136.157 122.371 136.157 122.371L136.285 120.317C136.285 120.317 139.097 118.756 141.038 116.326C141.17 116.294 141.291 116.266 141.405 116.244C141.801 116.196 142.686 116.136 143.244 116.241C143.442 116.275 143.636 116.168 143.68 115.997C143.7 115.915 143.682 115.83 143.629 115.759C143.576 115.689 143.493 115.639 143.398 115.621C142.796 115.511 142.007 115.552 141.585 115.59C142.682 113.953 143.291 111.993 142.488 109.889C142.488 109.889 147.479 109.965 149.292 114.357C148.209 114.531 147.402 114.885 147.365 114.901C147.185 114.983 147.116 115.172 147.207 115.327C147.273 115.435 147.402 115.498 147.534 115.498C147.593 115.498 147.648 115.485 147.703 115.463C147.71 115.46 148.473 115.122 149.472 114.967C149.49 114.964 149.505 114.961 149.523 114.961C149.912 115.978 150.342 117.106 150.771 118.257C152.276 122.305 153.799 126.669 153.589 127.743C153.314 129.165 146.341 131.851 146.341 131.851C146.341 131.851 144.323 132.436 141.662 131.494C141.662 131.494 143.291 133.412 146.899 133.747L147.901 137.144L145.332 140.936L138.451 139.119C141.387 133.036 137.441 126.874 137.441 126.874C137.441 126.874 132.854 127.427 133.037 124.741ZM148.587 128.874C149.857 128.138 149.982 126.4 149.982 126.4C149.982 126.4 146.983 127.244 144.293 127.032C144.293 127.032 147.317 129.614 148.587 128.874Z" fill="#FDA181"/>
<path d="M150.408 123.24L148.818 124.978C148.103 123.979 147.277 121.082 147.233 120.924C147.339 121.028 149.046 122.728 150.408 123.24Z" fill="#F77556"/>
<path d="M149.982 126.4C149.982 126.4 149.857 128.138 148.587 128.874C147.317 129.614 144.293 127.032 144.293 127.032C146.984 127.244 149.982 126.4 149.982 126.4Z" fill="white"/>
<path d="M150.914 114.917C150.488 114.872 150.022 114.891 149.523 114.961C149.486 114.86 149.446 114.759 149.409 114.657C149.395 114.623 149.384 114.585 149.369 114.55C149.343 114.484 149.318 114.42 149.292 114.357L149.343 114.348C149.934 114.256 150.488 114.237 151.002 114.291C151.2 114.31 151.347 114.468 151.321 114.642C151.299 114.812 151.116 114.939 150.914 114.917Z" fill="black"/>
<path d="M148.844 119.9C148.507 119.963 148.118 119.565 147.974 119.009C147.835 118.453 147.996 117.953 148.334 117.89C148.672 117.824 149.061 118.225 149.2 118.778C149.343 119.334 149.182 119.837 148.844 119.9Z" fill="#231F20"/>
<path d="M149.472 114.967C148.474 115.122 147.71 115.46 147.703 115.463C147.648 115.485 147.593 115.498 147.534 115.498C147.402 115.498 147.273 115.435 147.207 115.327C147.116 115.173 147.185 114.983 147.365 114.901C147.402 114.885 148.209 114.531 149.292 114.357C149.318 114.42 149.343 114.484 149.369 114.55C149.384 114.585 149.395 114.623 149.409 114.657C149.446 114.759 149.486 114.86 149.523 114.961C149.505 114.961 149.49 114.964 149.472 114.967Z" fill="black"/>
<path d="M146.341 131.851L146.899 133.747C143.291 133.412 141.662 131.494 141.662 131.494C144.323 132.436 146.341 131.851 146.341 131.851Z" fill="#F77556"/>
<path d="M145.332 140.936L141.783 145.78L138.201 140.939L138.198 140.936L137.001 139.321V139.318L138.451 139.119L145.332 140.936Z" fill="#A9D9FF"/>
<path d="M143.714 118.901C144.051 118.838 144.44 119.236 144.58 119.792C144.723 120.345 144.561 120.848 144.224 120.911C143.886 120.974 143.497 120.576 143.354 120.02C143.214 119.467 143.376 118.965 143.714 118.901Z" fill="#231F20"/>
<path d="M142.029 148.52L138.201 140.939L141.783 145.78L145.332 140.936L146.782 141.334L142.029 148.52Z" fill="#295FC5"/>
<path d="M143.244 116.241C142.686 116.136 141.801 116.196 141.405 116.244C141.291 116.266 141.17 116.294 141.038 116.326C141.145 116.196 141.244 116.064 141.343 115.931H141.346C141.427 115.82 141.508 115.707 141.585 115.59C142.007 115.552 142.796 115.511 143.398 115.621C143.596 115.659 143.721 115.827 143.68 115.997C143.636 116.168 143.442 116.275 143.244 116.241Z" fill="black"/>
<path d="M141.038 116.326C140.201 116.525 139.071 116.873 138.715 117.192C138.681 117.223 138.64 117.248 138.595 117.265C138.549 117.282 138.5 117.29 138.451 117.29C138.359 117.29 138.267 117.261 138.198 117.201C138.163 117.173 138.135 117.138 138.116 117.1C138.096 117.063 138.086 117.022 138.085 116.98C138.084 116.939 138.092 116.898 138.11 116.859C138.127 116.821 138.153 116.785 138.187 116.756C138.88 116.124 141.016 115.672 141.258 115.624L141.313 115.615C141.357 115.612 141.453 115.599 141.585 115.59C141.508 115.707 141.427 115.82 141.346 115.931H141.343C141.244 116.064 141.145 116.196 141.038 116.326Z" fill="black"/>
<path d="M130.032 185.966C130.05 185.334 128.663 182.458 128.663 182.458L129.511 182.114C129.511 182.114 134.597 172.773 134.047 170.245C133.797 169.091 129.588 160.231 127.349 155.563C126.527 153.854 125.973 152.707 125.973 152.707L125.679 152.656L123.518 161.766L120.193 167.164L127.499 178.891C123.268 179.794 120.504 181.46 119.209 182.392C115.789 177.623 109.524 168.823 109.458 168.191C109.366 167.322 121.936 142.2 122.395 141.726C122.501 141.615 123.433 141.413 124.798 141.173C128.186 140.569 134.238 139.707 137.001 139.318V139.321L138.198 140.936L138.201 140.939L142.029 148.52L146.782 141.334L153.01 144.728V143.044L150.932 136.888C153.101 136.714 155.968 136.499 157.92 136.411C159.098 136.36 159.942 136.354 160.104 136.433C160.746 136.749 176.619 150.969 177.72 150.89C178.501 150.833 188.242 145.648 193.835 142.639C193.835 142.639 199.887 145.802 202.65 148.242C196.591 152.394 182.744 160.484 178.766 162.026C172.703 160.351 166.857 154.006 163.271 149.395C164.394 151.794 165.517 154.467 165.425 155.393C165.385 155.801 165.209 156.42 164.959 157.134C164.104 159.583 162.398 163.135 162.398 163.135C162.398 163.135 171.206 176.96 173.499 186.44C173.499 186.44 172.949 187.546 159.462 190.39C157.905 190.719 156.309 190.981 154.705 191.186C142.407 192.788 129.577 191.19 129.577 191.19C129.841 188.807 130.021 186.288 130.032 185.966Z" fill="#3E89FC"/>
<path d="M133.037 124.741C132.854 127.427 137.441 126.874 137.441 126.874C137.441 126.874 141.387 133.036 138.451 139.119L137.001 139.318C134.238 139.707 128.186 140.569 124.798 141.173V141.17C124.787 141.17 121.477 141.167 121.018 136.67C120.559 132.167 127.165 129.876 127.808 127.111C128.45 124.346 124.229 122.055 124.963 117.631C125.697 113.207 129.826 107.598 141.662 105.939C153.498 104.28 155.197 113.273 150.771 118.257C150.342 117.106 149.912 115.978 149.523 114.961C150.022 114.891 150.488 114.872 150.914 114.916C150.962 114.922 151.01 114.918 151.057 114.907C151.103 114.896 151.146 114.878 151.184 114.852C151.222 114.826 151.254 114.795 151.277 114.759C151.301 114.722 151.316 114.683 151.321 114.642C151.327 114.6 151.324 114.559 151.311 114.519C151.298 114.479 151.276 114.442 151.247 114.409C151.217 114.376 151.18 114.349 151.138 114.329C151.096 114.309 151.05 114.296 151.002 114.291C150.488 114.237 149.934 114.256 149.343 114.348L149.292 114.357C147.479 109.965 142.488 109.889 142.488 109.889C143.291 111.993 142.682 113.953 141.585 115.59C141.453 115.599 141.357 115.612 141.313 115.615L141.258 115.624C141.016 115.672 138.88 116.124 138.186 116.756C138.047 116.882 138.051 117.081 138.198 117.201C138.267 117.261 138.359 117.29 138.451 117.29C138.546 117.29 138.645 117.258 138.715 117.192C139.071 116.872 140.201 116.525 141.038 116.326C139.097 118.756 136.285 120.317 136.285 120.317L136.157 122.371C136.157 122.371 133.221 122.055 133.037 124.741Z" fill="#1E1950"/>
<path d="M127.499 178.891L129.511 182.114L128.663 182.458L122.464 184.977L121.385 185.413C121.385 185.413 120.501 184.19 119.209 182.392C120.504 181.46 123.268 179.795 127.499 178.891Z" fill="#A9D9FF"/>
<path d="M128.663 182.458C128.663 182.458 130.05 185.334 130.032 185.966C130.021 186.288 129.841 188.807 129.577 191.189C129.323 193.48 128.993 195.642 128.663 195.604C128.41 195.576 127.775 195.244 127.019 194.697C125.764 193.784 124.182 192.273 123.496 190.548C122.395 187.783 122.464 184.977 122.464 184.977L128.663 182.458Z" fill="#FDA181"/>
<path d="M125.514 242.214C125.789 237.711 126.876 195.291 127.019 194.697C127.775 195.244 128.41 195.576 128.663 195.604C128.993 195.642 129.323 193.481 129.577 191.19C129.577 191.19 142.407 192.788 154.705 191.186V191.19C154.705 191.19 153.285 195.971 151.31 202.584C147.068 216.77 140.275 239.38 139.46 241.266C139.46 241.266 138.818 254.121 130.835 270.632C130.835 270.632 130.542 270.714 130.01 270.812C128.38 271.115 124.508 271.583 119.928 270.392C119.414 270.256 118.89 270.101 118.357 269.921C118.357 269.921 125.239 246.717 125.514 242.214Z" fill="#295FC5"/>
<path d="M119.928 270.392C124.508 271.583 128.38 271.115 130.01 270.812L129 279.581L104.136 279.976C104.136 279.976 104.136 277.369 104.87 276.105C105.604 274.841 118.357 272.866 118.357 272.866L119.928 270.392Z" fill="#1E1950"/>
<path d="M125.973 152.707C125.973 152.707 126.527 153.854 127.349 155.564L127.342 155.567L123.518 161.767L125.679 152.656L125.973 152.707Z" fill="#295FC5"/>
<path d="M243.321 77.2092C242.961 74.2556 239.95 69.5822 237.205 67.939C236.427 67.4732 233.831 66.3913 232.85 67.1399C231.242 68.3663 233.624 70.4825 234.513 71.3104C235.997 72.6923 237.632 74.101 238.618 75.7237C239.351 76.9292 239.616 78.525 240.569 79.5789C243.241 82.5335 244.609 78.7968 243.076 76.5772M242.342 85.4252C242.001 86.1507 240.985 88.977 241.359 89.8492C241.931 91.1818 243.681 91.5379 244.752 90.2704C246.444 88.2676 242.845 83.8907 241.853 86.4784" fill="white"/>
</g>
<defs>
<filter id="filter0_i_14_59" x="0" y="0" width="367" height="320" filterUnits="userSpaceOnUse" color-interpolation-filters="sRGB">
<feFlood flood-opacity="0" result="BackgroundImageFix"/>
<feBlend mode="normal" in="SourceGraphic" in2="BackgroundImageFix" result="shape"/>
<feColorMatrix in="SourceAlpha" type="matrix" values="0 0 0 0 0 0 0 0 0 0 0 0 0 0 0 0 0 0 127 0" result="hardAlpha"/>
<feOffset dy="4"/>
<feGaussianBlur stdDeviation="2"/>
<feComposite in2="hardAlpha" operator="arithmetic" k2="-1" k3="1"/>
<feColorMatrix type="matrix" values="0 0 0 0 0 0 0 0 0 0 0 0 0 0 0 0 0 0 0.25 0"/>
<feBlend mode="normal" in2="shape" result="effect1_innerShadow_14_59"/>
</filter>
</defs>
</svg>
